<svg width="125" height="27" viewBox="0 0 125 27" fill="none" xmlns="http://www.w3.org/2000/svg">
<g id="logo 2" clip-path="url(#clip0_1400_5099)">
<rect width="123.745" height="25.9479" transform="translate(0.389648 0.271484)" fill="#4AA3E4"/>
<g id="Clip path group">
<mask id="mask0_1400_5099" style="mask-type:luminance" maskUnits="userSpaceOnUse" x="0" y="0" width="125" height="26">
<g id="clip0_602_6036">
<path id="Vector" d="M0.389648 0.271484H124.135V25.6807H0.389648V0.271484Z" fill="white"/>
</g>
</mask>
<g mask="url(#mask0_1400_5099)">
<g id="Group">
<path id="Vector_2" d="M18.0848 5.76691V10.0963C18.4146 9.71946 18.8477 9.06061 18.8477 7.93131C18.8477 6.82119 18.4356 6.14316 18.0848 5.76691ZM16.5998 17.681C16.6413 17.1919 16.6617 16.2882 16.2701 15.4788C15.8778 14.6699 15.1768 14.1989 14.8055 13.9732C14.7232 14.3681 14.6403 15.1589 15.0326 15.9684C15.4243 16.7965 16.1667 17.3797 16.5998 17.681ZM17.5694 10.2091V5.63548C17.2186 5.99255 16.7032 6.70781 16.7032 7.93131C16.6821 9.17399 17.2186 9.87007 17.5694 10.2091ZM20.5801 16.1568C20.9724 15.3473 20.8691 14.5565 20.7868 14.1616C20.4155 14.3686 19.7139 14.8577 19.3222 15.6672C18.9306 16.4766 18.9714 17.3797 19.0333 17.8694C19.4664 17.5681 20.2089 16.9657 20.5801 16.1562V16.1568ZM32.5426 2.3604C30.2322 0.628662 25.9222 0.383849 17.7136 0.365234C9.56678 0.383849 5.25673 0.647277 2.94641 2.37902C0.6367 4.11076 0.430664 7.29164 0.430664 13.0137C0.430664 18.7916 0.6367 21.9725 2.92599 23.7229C5.21528 25.4546 9.54636 25.718 17.7136 25.718C25.9222 25.718 30.2322 25.4546 32.5426 23.7229C34.8523 21.9725 35.0583 18.7916 35.0583 13.0132C35.0583 7.27246 34.8523 4.09158 32.5426 2.3604ZM23.2617 4.16717C23.6119 3.69672 24.2516 3.60252 24.2516 3.60252C24.2516 3.60252 25.3035 3.07566 26.3139 3.79092C27.448 4.59982 26.7055 6.08675 26.7055 6.08675C26.7055 6.08675 26.4791 7.38584 26.4172 7.57368C26.3553 7.7429 25.9012 7.91213 25.9012 7.91213C25.9012 7.91213 25.6537 7.9691 25.3653 7.98772C25.0968 7.98772 24.767 7.91269 24.6847 7.85628C24.561 7.79988 24.54 7.57424 24.54 7.57424C24.54 7.57424 24.4991 7.36666 24.4373 7.31025C24.3754 7.25384 23.7567 7.21605 23.344 6.55776C23.055 6.10593 23.2406 5.48487 23.3025 5.12724C23.344 4.73182 23.2617 4.16717 23.2617 4.16717ZM8.43265 3.73451C9.58782 3.24489 10.949 3.69672 11.4644 4.75043C11.8152 5.44708 11.6705 5.69189 11.1755 5.91752C11.2584 6.08675 11.2992 6.25598 11.2992 6.44438C11.2992 7.19743 10.6186 7.81849 9.79385 7.81849C9.17513 7.81849 8.63869 7.48004 8.41224 6.9718C7.93767 7.12241 7.58685 7.06544 7.31895 6.50079C6.80355 5.44708 7.27749 4.22358 8.43265 3.73451ZM32.7282 20.9374H23.4677L23.4058 21.1253C23.4058 21.1253 22.8694 22.6122 21.859 22.3679C20.9105 22.1423 21.3022 20.9374 21.3022 20.9374V20.9182H18.0848V22.5558H17.5694V20.9182H14.6199L14.7232 21.3137C14.7232 21.3137 14.9089 22.0667 14.1868 22.3301C13.4239 22.6122 12.9908 21.6527 12.9908 21.6527C12.9908 21.6527 12.8256 21.3323 12.6196 20.8996H2.71995V20.4292H12.4129C12.3511 20.26 12.2688 20.0907 12.2069 19.9209C11.8975 19.1115 11.5059 17.7187 11.423 17.6623C11.3407 17.6059 10.7424 17.6059 10.0413 17.5303C9.34033 17.4553 8.86576 17.2483 8.78347 17.2669C8.57682 17.3047 7.11291 19.0551 6.14337 19.2243C5.17382 19.3935 4.16344 18.2648 4.16344 18.2648L2.96744 16.8529C2.96744 16.8529 2.5133 16.2888 2.8437 15.987C3.25577 15.6108 3.66846 15.8928 3.66846 15.8928C3.66846 15.8928 5.27715 16.8529 5.46277 16.9471C5.58651 17.0221 5.62797 16.9657 5.62797 16.9657C5.62797 16.9657 5.89588 16.7401 6.01962 16.5895C6.10191 16.4766 6.01962 16.4202 6.01962 16.4202C6.01962 16.4202 5.23569 15.705 4.92633 15.4037C4.65842 15.1589 4.90591 14.8013 4.90591 14.8013L7.25707 10.5097L4.16344 11.0936C4.16344 11.0936 3.56513 11.225 3.44139 10.8679C3.31764 10.5097 3.89553 10.2091 3.89553 10.2091L7.97913 8.02607C7.97913 8.02607 8.16475 7.91269 8.24704 7.91269C8.32933 7.89351 8.49453 7.9691 8.49453 7.9691C8.49453 7.9691 9.05138 8.38314 9.83531 8.34535C10.6186 8.32673 11.0517 7.89408 11.0517 7.89408C11.0517 7.89408 11.1551 7.79988 11.2992 7.76208C11.444 7.74347 11.7942 8.08192 11.7942 8.08192L15.4243 11.7524C15.4243 11.7524 15.8159 12.1473 15.5276 12.4863C15.2591 12.7875 14.7022 12.4677 14.7022 12.4677C14.7022 12.4677 12.4129 11.225 12.3306 11.1872C12.2483 11.1686 12.2688 11.282 12.2688 11.282L14.4962 20.3914H17.5484V10.7923C17.3219 10.6609 16.1253 9.83227 16.1253 7.85628C16.1253 5.72968 17.5484 4.90104 17.5898 4.86381C17.6319 4.83622 17.6824 4.82138 17.7343 4.82138C17.7861 4.82138 17.8367 4.83622 17.8788 4.86381C17.9406 4.90104 19.3637 5.72912 19.3637 7.85628C19.3637 9.60664 18.4356 10.4533 18.0644 10.7173V20.3914H21.3845L22.7457 14.4629C22.7457 14.4629 23.5092 11.1314 23.4677 11.0936C23.4263 11.0744 20.7039 12.6747 20.7039 12.6747C20.7039 12.6747 20.3326 12.9945 19.941 12.6555C19.5493 12.3171 20.1266 11.8466 20.1266 11.8466L23.571 8.17612C23.571 8.17612 23.6948 8.04469 23.8389 8.04469C24.045 8.0633 24.066 8.17612 24.066 8.17612C24.066 8.17612 24.4373 9.06061 24.4991 9.06061C24.561 9.06061 25.0764 8.57154 25.0764 8.57154C25.0764 8.57154 25.3443 8.32673 25.4891 8.30812C25.6333 8.28894 25.7155 8.40232 25.7155 8.40232L26.2724 9.13563C26.2724 9.13563 26.4172 9.30542 26.4376 9.30542C26.479 9.30542 26.5199 9.2304 26.5199 9.2304L27.1801 8.11915C27.1801 8.11915 27.3242 7.85628 27.448 7.76208C27.5928 7.66788 27.8607 7.83711 27.8607 7.83711L31.7791 9.98289C31.7791 9.98289 32.3155 10.2085 32.1713 10.6795C32.0061 11.225 31.0985 10.943 31.0985 10.943C31.0985 10.943 28.3971 10.4353 28.3761 10.4725C28.3352 10.5097 28.4175 10.6039 28.4175 10.6039C28.4175 10.6039 30.5416 14.9897 30.5212 15.2531C30.5008 15.4602 30.2322 15.6294 30.2322 15.6294C30.2322 15.6294 29.5108 16.0248 29.5108 16.0998C29.4898 16.1754 29.5727 16.2318 29.5727 16.2318C29.5727 16.2318 29.9439 16.5895 30.0466 16.6267C30.15 16.6459 30.3356 16.533 30.3356 16.533L31.573 15.9306C31.573 15.9306 32.1503 15.4979 32.6044 15.912C33.058 16.3068 32.4392 16.8151 32.4392 16.8151L31.2222 18.0578C31.2222 18.0578 30.5212 19.0173 29.8202 19.0929C29.0777 19.1679 28.3971 18.566 28.3971 18.566C28.3971 18.566 26.2105 16.7587 26.1697 16.7023C26.1282 16.6645 26.0868 16.7214 26.0868 16.7214C26.0868 16.7214 25.8603 17.2669 25.757 17.3611C25.6537 17.4361 25.4681 17.4739 25.4681 17.4739C25.4681 17.4739 24.5814 17.5868 24.54 17.6059C24.4991 17.6245 24.4577 17.7938 24.4577 17.7938L23.5915 20.4478H32.7072L32.7282 20.9374ZM16.744 15.2909C17.3838 16.6081 17.0744 18.0764 17.0534 18.1328C17.0454 18.1693 17.0283 18.2036 17.0032 18.2329C16.9782 18.2623 16.946 18.286 16.9092 18.302C16.8269 18.3398 16.744 18.3212 16.6617 18.2834C16.5998 18.2456 15.1972 17.4739 14.558 16.1568C13.9189 14.8199 14.3724 13.5778 14.3928 13.5214C14.4139 13.465 14.4758 13.4086 14.5376 13.39C14.6048 13.3712 14.6765 13.3712 14.7437 13.39C14.7851 13.4272 16.1049 13.954 16.744 15.2909ZM20.8691 13.5778C20.9362 13.559 21.008 13.559 21.0751 13.5778C21.137 13.597 21.1988 13.6534 21.2199 13.7098C21.2403 13.7662 21.7149 14.9897 21.0751 16.326C20.4564 17.6432 19.0543 18.434 18.9925 18.4718C18.9096 18.5282 18.8273 18.5282 18.745 18.509C18.7081 18.493 18.6758 18.4694 18.6506 18.44C18.6255 18.4106 18.6082 18.3763 18.6002 18.3398C18.5798 18.2834 18.25 16.8151 18.8687 15.4788C19.4874 14.1424 20.8072 13.597 20.8691 13.5778ZM47.1445 1.21193H47.6599L47.8251 1.23111L47.9897 1.24972L48.1549 1.26833L48.2991 1.28751L48.4438 1.30613L48.588 1.32531L48.7322 1.34392L48.8769 1.38172L49.0211 1.41895L49.1449 1.45674L49.2686 1.49453L49.3923 1.53233L49.5161 1.56956V2.71803L49.3719 2.64245L49.2271 2.58604L49.083 2.52963L48.9388 2.47322L48.794 2.41681L48.6499 2.37902L48.5057 2.34122L48.3609 2.304L48.2168 2.2662L48.0726 2.24759L47.9278 2.22841L47.7632 2.20979L47.598 2.19061L47.4328 2.172H46.897L46.6904 2.19061L46.4843 2.20979L46.2783 2.24759L46.0927 2.28482L45.9071 2.32261L45.7214 2.37902L45.5358 2.43543L45.3706 2.51101L45.2054 2.58604L45.0408 2.68024L44.8756 2.77444L44.7315 2.86864L44.5867 2.98146L44.4425 3.09428L44.2984 3.22627L44.1746 3.35771L44.0509 3.4897L43.9476 3.64031L43.8442 3.79092L43.7415 3.94153L43.6586 4.11076L43.5763 4.27999L43.5144 4.44921L43.4526 4.63762L43.3907 4.82602L43.3492 5.01386L43.3084 5.20226L43.2874 5.40928L43.267 5.6163L43.2465 5.82332V6.25654L43.267 6.46356L43.2874 6.6514L43.3084 6.8398L43.3492 7.02821L43.3907 7.21605L43.4322 7.38527L43.494 7.55506L43.5559 7.72429L43.6382 7.8749L43.7205 8.02551L43.8034 8.17612L43.9061 8.36453L44.0094 8.49596L44.1332 8.62795L44.2569 8.75939L44.3807 8.8722L44.5044 8.98502L44.6486 9.0984L44.7934 9.1926L44.9375 9.28681L45.0817 9.36183L45.2469 9.43742L45.4121 9.51244L45.5767 9.56885L45.7419 9.62526L45.9275 9.66305L46.1131 9.70084L46.2987 9.71946L46.4843 9.73864L46.6904 9.75725H47.2683L47.4539 9.73807L47.6395 9.71946L47.8251 9.70084L47.9897 9.68166L48.1549 9.64443L48.3201 9.60664L48.4847 9.56885L48.6499 9.53105L48.8151 9.47465L48.9592 9.41824L49.1034 9.36183L49.2482 9.30542L49.3923 9.2304L49.5365 9.15481V10.2091L49.3923 10.2655L49.2482 10.3219L49.1034 10.3783L48.9388 10.4347L48.7736 10.4911L48.6084 10.5289L48.4438 10.5667L48.2786 10.6039L48.093 10.6417L47.9074 10.6609L47.7218 10.6795L47.5362 10.6981L47.3506 10.7173L47.1445 10.7359H46.4639L46.1954 10.7173L45.9479 10.6981L45.7004 10.6609L45.4529 10.6231L45.2265 10.5667L44.9994 10.5103L44.7723 10.4347L44.5663 10.3597L44.3602 10.2655L44.1536 10.1527L43.968 10.0399L43.7824 9.90786L43.5967 9.77587L43.4322 9.62526L43.267 9.47465L43.1018 9.30542L42.9576 9.13619L42.8134 8.96697L42.6897 8.77856L42.5659 8.59016L42.4626 8.40232L42.3593 8.19474L42.277 7.98772L42.1947 7.7807L42.1328 7.55506L42.071 7.32943L42.0295 7.1038L41.9881 6.85842L41.9676 6.61417L41.9472 6.36936V5.86112L41.9676 5.59769L41.9881 5.33426L42.0295 5.08945L42.071 4.84463L42.1328 4.59982L42.2151 4.37419L42.2974 4.14855L42.4007 3.92292L42.5041 3.71534L42.6278 3.50832L42.7516 3.3013L42.8957 3.11289L43.0399 2.92505L43.2051 2.73665L43.3907 2.56742L43.5763 2.3982L43.7619 2.24759L43.968 2.09698L44.1746 1.96498L44.3807 1.85216L44.5867 1.73935L44.8138 1.64514L45.0408 1.55094L45.2673 1.47592L45.5148 1.40033L45.7623 1.34392L46.0098 1.28751L46.2783 1.24972L46.5462 1.23111L46.8141 1.21193H47.1445ZM55.7238 2.19061H55.5177L55.3321 2.20979L55.1465 2.22841L54.9609 2.24759L54.7753 2.28482L54.6101 2.32261L54.4455 2.37902L54.2803 2.43543L54.1151 2.51101L53.9709 2.58604L53.8268 2.68024L53.682 2.77444L53.5378 2.86864L53.3937 2.98146L53.2699 3.09428L53.1462 3.22627L53.0224 3.35771L52.9191 3.4897L52.8158 3.64031L52.7131 3.79092L52.6301 3.94153L52.5479 4.09158L52.4656 4.26081L52.4037 4.4306L52.3418 4.59982L52.3004 4.78823L52.2589 4.97663L52.2181 5.16447L52.197 5.35288L52.1766 5.55989L52.1562 5.76691V6.18095L52.1766 6.38797L52.197 6.59499L52.2181 6.7834L52.2589 6.9718L52.3004 7.15964L52.3418 7.34804L52.4037 7.51727L52.4656 7.6865L52.5274 7.85572L52.6097 8.0069L52.692 8.15751L52.7953 8.30812L52.8987 8.45873L53.0014 8.59016L53.1251 8.72216L53.2489 8.85359L53.3726 8.9664L53.4964 9.07922L53.6411 9.17399L53.7853 9.26763L53.9295 9.34321L54.0743 9.41824L54.2388 9.49382L54.404 9.55023L54.5692 9.60664L54.7338 9.64443L54.899 9.68166L55.0846 9.70084L55.2703 9.71946L55.4559 9.73864H55.8475L56.0542 9.71946L56.2398 9.70084L56.4254 9.68166L56.611 9.64443L56.7967 9.60664L56.9612 9.55023L57.1264 9.49382L57.2916 9.43742L57.4562 9.36183L57.601 9.28681L57.7452 9.1926L57.8893 9.0984L58.0131 9.0042L58.1368 8.89138L58.2606 8.77856L58.3843 8.64657L58.4876 8.51514L58.591 8.38314L58.6937 8.23253L58.7766 8.08192L58.8589 7.93131L58.9207 7.76208L58.9826 7.59286L59.0445 7.42363L59.0859 7.23523L59.1268 7.04682L59.1682 6.85842L59.1886 6.6514L59.2097 6.44438L59.2301 6.23736V5.56046L59.2097 5.35288L59.1886 5.14586L59.1478 4.93884L59.1064 4.75043L59.0649 4.56259L59.003 4.37419L58.9412 4.20496L58.8793 4.03574L58.797 3.88456L58.7147 3.73451L58.6318 3.5839L58.5291 3.45191L58.4258 3.31991L58.3224 3.18848L58.1987 3.07566L58.0749 2.96285L57.9512 2.85003L57.807 2.75526L57.6629 2.66162L57.5181 2.58604L57.3739 2.51101L57.2087 2.43543L57.0441 2.37902L56.8789 2.32261L56.7137 2.28482L56.5281 2.24759L56.3425 2.22841L56.1569 2.20979L55.9713 2.19061H55.7238ZM55.8067 1.21193H56.0746L56.3221 1.23111L56.5696 1.24972L56.8171 1.28751L57.0441 1.32531L57.2706 1.38172L57.4977 1.43812L57.7037 1.51315L57.9104 1.60735L58.1164 1.70155L58.302 1.81437L58.4876 1.92719L58.6732 2.05918L58.8385 2.19061L59.003 2.34122L59.1682 2.49184L59.3124 2.66106L59.4572 2.83029L59.6013 3.00008L59.7251 3.18848L59.8488 3.37688L59.9522 3.56473L60.0549 3.77174L60.1378 3.97876L60.2201 4.18578L60.2819 4.41142L60.3438 4.63762L60.3853 4.86325L60.4261 5.10806L60.4471 5.35288L60.4676 5.59769V6.14316L60.4471 6.40715L60.4057 6.67058L60.3642 6.93401L60.3234 7.17882L60.2615 7.42307L60.1996 7.6487L60.1167 7.8749L60.0345 8.10053L59.9311 8.30812L59.8284 8.51514L59.7047 8.70298L59.5809 8.89138L59.4361 9.07979L59.292 9.24901L59.1268 9.41824L58.9622 9.56885L58.797 9.71946L58.6114 9.85145L58.4258 9.98289L58.2401 10.0957L58.0341 10.2085L57.8274 10.3033L57.6214 10.3969L57.3943 10.4725L57.1679 10.5475L56.9408 10.6039L56.6933 10.6417L56.4458 10.6795L56.1983 10.6981L55.9304 10.7173H55.394L55.1261 10.6981L54.8786 10.6795L54.6311 10.6417L54.3836 10.6039L54.1565 10.5475L53.9295 10.4725L53.703 10.3969L53.4964 10.3033L53.2903 10.2091L53.0843 10.0963L52.8987 9.98345L52.7131 9.85145L52.5274 9.71946L52.3622 9.56885L52.197 9.41824L52.0325 9.24901L51.8877 9.07979L51.7435 8.91056L51.6198 8.72216L51.496 8.53375L51.3927 8.34535L51.29 8.13833L51.2071 7.93131L51.1248 7.72429L51.0629 7.49865L51.001 7.27302L50.9596 7.04739L50.9188 6.80201L50.8977 6.55776L50.8773 6.31295V5.76748L50.8977 5.50349L50.9188 5.24006L50.9596 4.99524L51.001 4.75043L51.0629 4.50618L51.1248 4.28055L51.2071 4.05435L51.29 3.82872L51.3927 3.62113L51.496 3.41411L51.6198 3.22627L51.7435 3.03787L51.8877 2.84947L52.0325 2.68024L52.197 2.51101L52.3622 2.34179L52.5274 2.19061L52.7131 2.05918L52.8987 1.92719L53.1047 1.81437L53.3107 1.70155L53.5174 1.60735L53.7439 1.51315L53.9709 1.43812L54.198 1.36254L54.4455 1.30613L54.693 1.26833L54.9405 1.23111L55.2084 1.21193L55.4763 1.19331L55.8067 1.21193ZM66.9227 1.21193H67.4387L67.6033 1.23111L67.7685 1.24972L67.9337 1.26833L68.0779 1.28751L68.2221 1.30613L68.3668 1.32531L68.511 1.34392L68.6552 1.38172L68.7999 1.41895L68.9237 1.45674L69.0474 1.49453L69.1712 1.53233L69.2949 1.56956V2.71803L69.1501 2.64245L69.006 2.58604L68.8618 2.52963L68.717 2.47322L68.5729 2.41681L68.4287 2.37902L68.2839 2.34122L68.1398 2.304L67.9956 2.2662L67.8508 2.24759L67.7067 2.22841L67.5415 2.20979L67.3769 2.19061L67.2117 2.172H66.6752L66.4692 2.19061L66.2632 2.20979L66.0565 2.24759L65.8709 2.28482L65.6853 2.32261L65.4997 2.37902L65.314 2.43543L65.1495 2.51101L64.9843 2.58604L64.8191 2.68024L64.6545 2.77444L64.5097 2.86864L64.3655 2.98146L64.2214 3.09428L64.0766 3.22627L63.9528 3.35771L63.8291 3.4897L63.7054 3.64031L63.6026 3.79092L63.4993 3.94153L63.417 4.11076L63.3341 4.27999L63.2722 4.44921L63.2104 4.63762L63.1485 4.82602L63.1077 5.01386L63.0662 5.20226L63.0458 5.40928L63.0248 5.6163L63.0043 5.82332V6.25654L63.0248 6.46356L63.0458 6.6514L63.0662 6.8398L63.1077 7.02821L63.1485 7.21605L63.2104 7.38527L63.2722 7.55506L63.3341 7.72429L63.417 7.8749L63.4993 8.02551L63.5816 8.17612L63.6849 8.32673L63.7883 8.45873L63.912 8.59016L64.0358 8.72216L64.1595 8.83497L64.2832 8.94779L64.4274 9.06061L64.5716 9.15481L64.7164 9.24901L64.8605 9.32403L65.0257 9.39962L65.1903 9.47465L65.3555 9.53105L65.5207 9.58746L65.7063 9.62526L65.8919 9.66305L66.0776 9.68166L66.2632 9.70084L66.4692 9.71946H67.0465L67.2321 9.70084L67.4177 9.68166L67.5829 9.66305L67.7481 9.64443L67.9127 9.60664L68.0779 9.56885L68.2431 9.53105L68.4077 9.49382L68.5729 9.43742L68.717 9.38101L68.8618 9.3246L69.006 9.26819L69.1501 9.1926L69.2949 9.11701V10.1713L69.1501 10.2277L69.006 10.2841L68.8618 10.3405L68.6966 10.3969L68.5314 10.4533L68.3668 10.4911L68.2016 10.5289L68.0364 10.5667L67.8508 10.6039L67.6652 10.6231L67.4796 10.6417L67.294 10.6609L67.1084 10.6795L66.9023 10.6981H66.2217L65.9538 10.6795L65.7063 10.6604L65.4588 10.6231L65.2113 10.5853L64.9843 10.5289L64.7572 10.4725L64.5307 10.3969L64.3241 10.3219L64.118 10.2277L63.912 10.1149L63.7264 10.0021L63.5408 9.87007L63.3552 9.73864L63.19 9.58803L63.0248 9.43742L62.8602 9.26819L62.7154 9.0984L62.5712 8.92917L62.4475 8.74077L62.3237 8.55237L62.2204 8.36453L62.1177 8.15751L62.0348 7.95049L61.9525 7.74347L61.8906 7.51783L61.8288 7.29164L61.7873 7.066L61.7465 6.82119L61.7254 6.57638L61.705 6.33156V5.82332L61.7254 5.55989L61.7465 5.29647L61.7873 5.05165L61.8288 4.80684L61.8906 4.56259L61.9729 4.33696L62.0558 4.11076L62.1585 3.88513L62.2619 3.67754L62.3856 3.47052L62.5094 3.2635L62.6535 3.07566L62.7983 2.88726L62.9629 2.69885L63.1485 2.52963L63.3341 2.3604L63.5197 2.20979L63.7264 2.05918L63.9324 1.92719L64.1385 1.81437L64.3451 1.70155L64.5716 1.60735L64.7986 1.51315L65.0257 1.43812L65.3555 1.40033L65.603 1.34392L65.8505 1.28751L66.1184 1.24972L66.3869 1.23111L66.6548 1.21193H66.9227ZM78.4521 2.34122L78.431 2.54824L78.4106 2.75526L78.3902 2.96228L78.3692 3.16987L78.3283 3.3955L78.2869 3.62113L78.2454 3.84677L78.2046 4.07297L78.1631 4.2986L78.1013 4.54341L78.0394 4.78823L77.9775 5.03304L77.9156 5.27785L77.8334 5.54128L77.7504 5.80471L77.6682 6.06814L77.5859 6.33156L77.503 6.59499L77.4207 6.8398L77.3384 7.08462L77.2555 7.32943L77.1732 7.55506L77.0909 7.7807L77.008 8.00633L76.9257 8.23253L76.8224 8.43955L76.7196 8.64657L76.6163 8.85359L76.513 9.04199L76.4103 9.2304L76.307 9.41824L76.2036 9.60664H81.0093V2.34122H78.4521ZM77.4411 1.36254H82.1849V9.58803H83.5461V13.0323H82.4738V10.5667H75.2551V13.0318H74.1618V9.58803H74.9458L75.0695 9.38101L75.1933 9.15537L75.317 8.92917L75.4407 8.70354L75.5645 8.47734L75.6678 8.23253L75.7705 7.98772L75.8738 7.74347L75.9772 7.49865L76.0799 7.25384L76.1832 6.99041L76.2865 6.72699L76.3892 6.46356L76.4926 6.20013L76.5749 5.91809L76.6578 5.63548L76.7401 5.35344L76.8224 5.07083L76.9053 4.78879L76.9671 4.50618L77.029 4.22358L77.0909 3.96015L77.1528 3.69672L77.2146 3.43329L77.2555 3.16987L77.2969 2.90587L77.3384 2.64245L77.3792 2.37902L77.4002 2.11559L77.4207 1.85216L77.4411 1.58873V1.3631V1.36254ZM85.3608 1.36254H86.5364V9.21178H86.5574L86.6397 9.06117L86.743 8.91056L86.8457 8.75995L86.9491 8.59072L91.9607 1.36254H93.4871V10.5667H92.3116V2.64301H92.2701L92.2082 2.79306L92.1259 2.94367L92.043 3.09428L91.9607 3.22627L86.7634 10.5667H85.3608V1.36254ZM95.1162 1.36254H102.108V2.34122H99.1998V10.5667H98.0243V2.34122H95.1162V1.36254ZM106.728 2.34122H106.357L106.253 2.3604L106.15 2.37902L106.047 2.39763L105.944 2.41681L105.841 2.43543L105.738 2.45461L105.655 2.49184L105.573 2.52963L105.49 2.56742L105.408 2.60522L105.325 2.64245L105.243 2.69885L105.181 2.75526L105.119 2.81167L105.057 2.86808L104.995 2.92449L104.934 2.9809L104.892 3.05648L104.851 3.13207L104.81 3.2071L104.768 3.28268L104.727 3.35771L104.707 3.43329L104.686 3.50832L104.665 3.60252L104.645 3.69672L104.624 3.79092V4.16717L104.645 4.26137L104.665 4.35557L104.686 4.44921L104.707 4.5248L104.748 4.59982L104.789 4.67541L104.83 4.75043L104.872 4.82602L104.913 4.90104L104.954 4.97663L105.016 5.05165L105.078 5.10806L105.14 5.16447L105.201 5.22088L105.263 5.27729L105.346 5.3337L105.429 5.3901L105.511 5.42846L105.593 5.46569L105.676 5.50349L105.758 5.54128L105.841 5.57851L105.944 5.59769L106.047 5.6163L106.15 5.63548L106.253 5.6541L106.357 5.67271H108.377V2.34122H106.728ZM106.625 1.36254H109.553V10.5667H108.377V6.65196H106.81L106.707 6.67058L106.604 6.68919L106.501 6.70837L106.419 6.7456L106.336 6.7834L106.253 6.82119L106.171 6.8776L106.13 6.89621L106.088 6.93401L106.047 6.9718L106.006 7.00903L105.964 7.04682L105.924 7.10323L105.882 7.15964L105.841 7.21605L105.8 7.27246L105.758 7.32887L105.717 7.40445L105.676 7.47948L105.635 7.55506L105.593 7.63009L105.552 7.72429L105.511 7.81849L104.253 10.5853H102.85L104.377 7.51727L104.418 7.44225L104.459 7.36666L104.5 7.29164L104.562 7.21605L104.624 7.14103L104.686 7.06544L104.748 6.99041L104.83 6.91483L104.913 6.8398L104.995 6.76478L105.078 6.68919L105.16 6.63278L105.243 6.57638L105.346 6.51997L105.449 6.48217L105.552 6.44438V6.42577L105.429 6.40715L105.305 6.36936L105.181 6.33156L105.078 6.29377L104.974 6.25654L104.872 6.21875L104.768 6.16234L104.665 6.10593L104.562 6.04952L104.479 5.99311L104.397 5.9367L104.315 5.88029L104.232 5.80471L104.15 5.72912L104.067 5.6541L104.005 5.57851L103.944 5.50349L103.882 5.42846L103.82 5.33426L103.758 5.24006L103.717 5.14586L103.675 5.05165L103.634 4.95745L103.593 4.86381L103.551 4.76961L103.531 4.67541L103.511 4.58121L103.489 4.46839L103.469 4.35557L103.449 4.24276V3.86595L103.469 3.71534L103.489 3.5839L103.511 3.45191L103.551 3.31991L103.593 3.18848L103.634 3.05648L103.696 2.94367L103.758 2.83085L103.82 2.71803L103.902 2.60522L103.984 2.4924L104.067 2.39763L104.17 2.304L104.273 2.20979L104.377 2.11559L104.5 2.02139L104.624 1.94636L104.748 1.87078L104.872 1.79575L104.995 1.73935L105.14 1.68294L105.16 1.58873L105.305 1.53233L105.449 1.49453L105.593 1.45674L105.758 1.41895L105.924 1.40033L106.088 1.38172L106.253 1.36254H106.625ZM112.049 1.36254H113.225V4.95745L113.245 5.12668L113.286 5.27785L113.327 5.42846L113.389 5.55989L113.472 5.67271L113.554 5.78553L113.658 5.87973L113.781 5.97393L113.905 6.04952L114.049 6.10593L114.214 6.16234L114.379 6.20013L114.565 6.23736L114.771 6.25654H115.307L115.472 6.23736L115.638 6.21875L115.802 6.20013L115.967 6.16234L116.133 6.12454L116.318 6.08675L116.504 6.03034L116.689 5.97393L116.875 5.91752L117.061 5.86112L117.246 5.78553L117.432 5.71051L117.617 5.63548L117.824 5.54128V1.36254H118.999V10.5667H117.824V6.4252L117.617 6.5194L117.411 6.61361L117.205 6.68863L117.019 6.76422L116.834 6.83924L116.648 6.89565L116.462 6.95206L116.277 7.00847L116.091 7.04626L115.905 7.08405L115.72 7.12128L115.534 7.14046L115.349 7.15908L115.163 7.17825H114.482L114.338 7.15908L114.193 7.14046L114.049 7.12128L113.905 7.10267L113.76 7.06487L113.637 7.02764L113.513 6.98985L113.389 6.93344L113.265 6.87703L113.163 6.82062L113.059 6.76422L112.956 6.68863L112.853 6.61361L112.77 6.53802L112.688 6.463L112.606 6.38741L112.523 6.2932L112.461 6.19957L112.399 6.10536L112.337 6.01116L112.275 5.89835L112.235 5.78553L112.193 5.67271L112.152 5.55989L112.131 5.44651L112.111 5.31452L112.09 5.18309L112.069 5.05109V1.36197L112.049 1.36254ZM120.752 1.36254H123.907V2.28482H122.917V9.64443H123.907V10.5667H120.752V9.64443H121.742V2.28482H120.752V1.36254ZM42.6482 16.4202H44.2155L47.3091 22.8384L47.392 23.0262L47.4743 23.1955L47.5362 23.3461L47.598 23.4972L47.6599 23.6287L47.7014 23.7415L47.7422 23.8543L47.7632 23.9485H47.8041L47.887 23.7607L47.9489 23.5914L48.0107 23.4403L48.0726 23.2897L48.1345 23.1582L48.1964 23.0262L48.2582 22.9134L48.2991 22.8192L51.4546 16.4202H52.9395V25.6238H51.7639V18.6224L51.785 18.3968L51.8054 18.1514L51.8258 17.9072L51.8468 17.6432H51.8258L51.785 17.7938L51.7435 17.9258L51.7021 18.0578L51.6612 18.1706L51.6198 18.2834L51.5783 18.3776L51.5375 18.4526L51.496 18.5282L48.0516 25.6047H47.4743L44.0298 18.5846L43.989 18.509L43.9476 18.4154L43.9061 18.3212L43.8653 18.2084L43.8238 18.0764L43.7824 17.9444L43.7415 17.7938L43.7001 17.6432H43.6796V25.6047H42.5449V16.4208L42.6482 16.4202ZM54.6101 16.4202H57.7656V17.3425H56.7756V24.7016H57.7656V25.6238H54.6101V24.7016H55.6V17.3425H54.6101V16.4202ZM63.912 16.2696H64.4274L64.5926 16.2882L64.7572 16.3068L64.9224 16.326L65.0666 16.3446L65.2113 16.3638L65.3555 16.3824L65.4997 16.401L65.6444 16.4388L65.7886 16.4766L65.9124 16.5139L66.0361 16.5517L66.1598 16.5895L66.2836 16.6272V17.7752L66.1394 17.7001L65.9946 17.6437L65.8505 17.5873L65.7063 17.5309L65.5615 17.4745L65.4174 17.4361L65.2732 17.3989L65.1284 17.3611L64.9843 17.3233L64.8401 17.3047L64.6953 17.2855L64.5307 17.2669L64.3655 17.2483L64.2003 17.2291H63.6645L63.4579 17.2483L63.2518 17.2669L63.0458 17.3047L62.8602 17.3425L62.6746 17.3797L62.4889 17.4361L62.3033 17.4926L62.1381 17.5681L61.9729 17.6432L61.8083 17.7374L61.6431 17.8316L61.499 17.9258L61.3542 18.0386L61.21 18.1514L61.0659 18.2834L60.9421 18.4154L60.8184 18.5468L60.6946 18.6974L60.5913 18.848L60.488 18.9987L60.4057 19.1679L60.3234 19.3371L60.2615 19.5063L60.1996 19.6947L60.1378 19.8831L60.0963 20.0715L60.0549 20.2594L60.0345 20.4664L60.014 20.6734L59.993 20.8804V21.3137L60.014 21.5207L60.0345 21.7091L60.0549 21.8969L60.0963 22.0853L60.1378 22.2737L60.1996 22.443L60.2615 22.6122L60.3234 22.7814L60.4057 22.932L60.488 23.0826L60.5709 23.2332L60.6736 23.3839L60.7769 23.5159L60.9007 23.6473L61.0244 23.7793L61.1482 23.8921L61.2719 24.0049L61.4161 24.1177L61.5608 24.2119L61.705 24.3061L61.8492 24.3817L62.0144 24.4567L62.1796 24.5323L62.3442 24.5887L62.5094 24.6451L62.695 24.6829L62.8806 24.7202L63.0662 24.7394L63.2518 24.758L63.4579 24.7766H64.0358L64.2214 24.758L64.407 24.7394L64.5716 24.7202L64.7368 24.7016L64.902 24.6638L65.0666 24.626L65.2318 24.5887L65.3969 24.5509L65.5615 24.4945L65.7063 24.4381L65.8505 24.3817L65.9946 24.3253L66.1394 24.2497L66.2836 24.1747V25.2284L66.1394 25.2848L65.9946 25.3412L65.8505 25.3976L65.6853 25.4541L65.5207 25.5105L65.3555 25.5483L65.1903 25.586L65.0257 25.6238L64.8401 25.6616L64.6545 25.6802L64.4689 25.6989L64.2832 25.718L64.0976 25.7367L63.891 25.7553H63.2104L62.9425 25.7367L62.695 25.718L62.4475 25.6802L62.2 25.6425L61.9729 25.586L61.7465 25.5296L61.5194 25.4546L61.3134 25.379L61.1067 25.2848L60.9007 25.172L60.715 25.0592L60.5294 24.9272L60.3438 24.7958L60.1786 24.6451L60.014 24.4945L59.8488 24.3253L59.7047 24.1561L59.5599 23.9863L59.4361 23.7979L59.3124 23.6101L59.2097 23.4216L59.1064 23.2146L59.0241 23.0076L58.9412 22.8006L58.8793 22.575L58.8174 22.3493L58.7766 22.1231L58.7351 21.8783L58.7147 21.6335L58.6937 21.3887V20.8804L58.7147 20.617L58.7351 20.3536L58.7766 20.1093L58.8385 19.8645L58.9003 19.6197L58.9826 19.3941L59.0649 19.1684L59.1682 18.9422L59.2716 18.7352L59.3953 18.5282L59.5191 18.3212L59.6632 18.1328L59.8074 17.9444L59.9726 17.7565L60.1582 17.5873L60.3438 17.4175L60.5294 17.2669L60.7355 17.1163L60.9421 16.9849L61.1482 16.8721L61.3542 16.7592L61.5813 16.6645L61.8083 16.5703L62.0348 16.4952L62.2823 16.4202L62.5298 16.3638L62.7773 16.3074L63.0458 16.2696L63.3137 16.2504L63.5816 16.2318L63.912 16.2696ZM67.315 16.4202H74.3066V17.3989H71.3986V25.6233H70.223V17.3989H67.315V16.4202ZM75.8943 16.4202H81.0093V17.3989H77.0698V20.4664H80.7203V21.4265H77.0698V24.6451H81.2364V25.6238H75.8943V16.4202ZM83.0307 16.4202H84.2062V20.0151L84.2267 20.1844L84.2681 20.335L84.3089 20.4856L84.3708 20.617L84.4537 20.7298L84.536 20.8427L84.6394 20.9374L84.7631 21.0311L84.8868 21.1066L85.031 21.1631L85.1962 21.2195L85.3608 21.2573L85.5464 21.295L85.7531 21.3137H86.2889L86.4541 21.295L86.6193 21.2759L86.7839 21.2573L86.9491 21.2195L87.1143 21.1817L87.2999 21.1444L87.4855 21.088L87.6711 21.0316L87.8567 20.9752L88.0424 20.9188L88.228 20.8432L88.4136 20.7676L88.5992 20.6926L88.8052 20.5984V16.4202H89.9808V25.6238H88.8052V21.4835L88.5992 21.5771L88.3925 21.6713L88.1865 21.7463L88.0009 21.8219L87.8153 21.8969L87.6297 21.9533L87.444 22.0097L87.2584 22.0662L87.0728 22.1039L86.8872 22.1417L86.7016 22.1795L86.5159 22.1982L86.3303 22.2173L86.1447 22.2359H85.4641L85.3199 22.2173L85.1752 22.1982L85.031 22.1795L84.8868 22.1604L84.7421 22.1231L84.6183 22.0853L84.4946 22.0475L84.3708 21.9911L84.2471 21.9347L84.1444 21.8783L84.041 21.8219L83.9377 21.7463L83.835 21.6713L83.7521 21.5957L83.6698 21.5207L83.5875 21.4457L83.5046 21.3515L83.4427 21.2573L83.3809 21.1631L83.319 21.0688L83.2571 20.956L83.2163 20.8432L83.1748 20.7304L83.1334 20.6176L83.1129 20.5048L83.0925 20.3728L83.0715 20.2408L83.0511 20.1093V16.4202H83.0307ZM92.7032 16.4202H93.8788V20.749H93.8992L93.9611 20.674L94.0229 20.5984L94.0848 20.5234L94.1677 20.4478L97.942 16.4388H99.4059L95.0748 20.8618L99.6948 25.6616H98.0447L94.1467 21.4457L94.0848 21.3893L94.044 21.3328L94.0025 21.2764L93.9611 21.2381L93.9407 21.2008L93.9202 21.1631L93.8992 21.1444L93.8788 21.1253H93.8584V25.6616H92.6828V16.4202H92.7032ZM104.356 17.5303L104.335 17.6245L104.315 17.7188L104.294 17.813L104.273 17.888L104.253 17.9636L104.232 18.0386L104.212 18.095L104.191 18.1514L102.623 22.0662H106.13L104.541 18.1514L104.521 18.095L104.5 18.0386L104.479 17.9636L104.459 17.888L104.439 17.813L104.418 17.7188L104.397 17.6245L104.377 17.5303H104.356ZM103.778 16.4202H104.995L108.872 25.6238H107.573L106.501 23.0454H102.232L101.221 25.6233H99.9008L103.778 16.4202Z" fill="white"/>
</g>
</g>
</g>
</g>
<defs>
<clipPath id="clip0_1400_5099">
<rect width="123.745" height="25.9479" fill="white" transform="translate(0.389648 0.271484)"/>
</clipPath>
</defs>
</svg>
