<svg width="40" height="40" viewBox="0 0 40 40" fill="none" xmlns="http://www.w3.org/2000/svg">
<rect x="0.5" y="0.5" width="39" height="39" rx="19.5" stroke="#ACACAC"/>
<path d="M20.9011 10.6768C25.3553 10.8143 29.2053 14.8435 29.1511 19.1643C29.1476 19.2745 29.1545 19.3847 29.1719 19.4935C29.1719 19.8477 29.1511 20.2143 28.6595 20.2018C28.1011 20.2018 28.1803 19.6518 28.1469 19.231V19.1185C27.5511 14.5352 25.4178 12.3643 20.7678 11.6602C20.3803 11.6143 19.797 11.681 19.8095 11.1893C19.8636 10.4477 20.547 10.7352 20.9011 10.6768ZM26.8553 18.9477C26.8564 18.9951 26.8481 19.0422 26.8308 19.0864C26.8136 19.1306 26.7877 19.1709 26.7548 19.205C26.7218 19.2391 26.6825 19.2663 26.6389 19.2851C26.5954 19.3039 26.5485 19.3138 26.5011 19.3143C25.997 19.406 25.9178 19.1102 25.8845 18.7768C25.8849 18.6469 25.8738 18.5172 25.8511 18.3893C25.3595 15.6018 24.3553 14.5768 21.497 13.9435C21.0803 13.8518 20.422 13.8977 20.5386 13.2685C20.6553 12.6393 21.2261 12.8518 21.6803 12.9143C24.5345 13.2685 26.8803 15.7018 26.8678 18.3852C26.8553 18.5477 26.8761 18.7768 26.8553 18.9477ZM24.4803 18.581C24.4035 18.6229 24.3178 18.6458 24.2303 18.6477C24.1584 18.656 24.0855 18.6467 24.018 18.6206C23.9505 18.5944 23.8903 18.5523 23.8428 18.4977C23.7636 18.3829 23.7162 18.2492 23.7053 18.1102C23.6919 17.5974 23.4875 17.1081 23.1322 16.7382C22.7769 16.3682 22.2963 16.1443 21.7845 16.1102C21.4303 16.0518 21.0761 15.9268 21.247 15.4727C21.3595 15.1518 21.6636 15.1185 21.9553 15.1185C23.2053 15.0852 24.7095 16.581 24.6845 17.8727C24.7103 17.9994 24.7041 18.1307 24.6662 18.2544C24.6284 18.3781 24.5602 18.4904 24.4678 18.581H24.4803ZM29.222 26.6227C28.7303 27.9727 27.0386 29.3518 25.5886 29.331C25.2573 29.2748 24.9322 29.1869 24.6178 29.0685C19.4178 26.8893 15.397 23.5518 12.6636 18.981C12.0245 17.9137 11.4674 16.7993 10.997 15.6477C10.1178 13.5352 11.0303 11.7518 13.2595 11.0102C13.6411 10.8852 14.0528 10.8852 14.4345 11.0102C15.3928 11.3643 17.7928 14.5977 17.8386 15.5685C17.872 16.3102 17.372 16.7102 16.8553 17.0435C16.5946 17.1819 16.3781 17.3909 16.2307 17.6466C16.0834 17.9023 16.011 18.1944 16.022 18.4893C16.0472 18.8055 16.129 19.1146 16.2636 19.4018C17.1758 21.3926 18.8159 22.9582 20.847 23.7768C21.5886 24.1102 22.3095 24.0727 22.822 23.3185C23.7261 21.981 24.8428 22.0685 26.0678 22.8727C26.6636 23.2893 27.3178 23.706 27.8845 24.1643C28.6845 24.8102 29.6886 25.3102 29.2095 26.6227H29.222Z" fill="#070707"/>
</svg>
