<svg width="40" height="40" viewBox="0 0 40 40" fill="none" xmlns="http://www.w3.org/2000/svg">
<g id="Icon/WhatsApp">
<path id="Vector" d="M2.15156 20.018C2.15067 23.1933 2.98409 26.2937 4.5688 29.0265L2 38.3636L11.5984 35.8582C14.2531 37.297 17.2276 38.0509 20.2503 38.051H20.2583C30.2367 38.051 38.3594 29.9677 38.3636 20.0322C38.3655 15.2177 36.4839 10.6905 33.0652 7.28452C29.6471 3.87879 25.1011 2.0022 20.2575 2C10.2779 2 2.15568 10.0829 2.15156 20.018Z" fill="url(#paint0_linear_442_4033)"/>
<path id="Vector_2" d="M15.1422 11.8647C14.7694 11.0425 14.377 11.0259 14.0225 11.0115C13.7322 10.9991 13.4003 11 13.0687 11C12.7369 11 12.1977 11.1239 11.7419 11.6177C11.2856 12.112 10 13.3064 10 15.7357C10 18.1651 11.7833 20.5129 12.0319 20.8427C12.2808 21.1718 15.4745 26.3166 20.5327 28.2958C24.7364 29.9406 25.5919 29.6135 26.5042 29.531C27.4167 29.4489 29.4486 28.3369 29.8631 27.1839C30.278 26.031 30.278 25.0428 30.1536 24.8363C30.0292 24.6306 29.6973 24.507 29.1997 24.2602C28.7019 24.0132 26.2553 22.8186 25.7992 22.6538C25.343 22.4892 25.0112 22.407 24.6794 22.9014C24.3475 23.3951 23.3945 24.507 23.1041 24.8363C22.8139 25.1664 22.5234 25.2075 22.0259 24.9605C21.528 24.7127 19.9253 24.192 18.0239 22.5099C16.5445 21.2011 15.5458 19.5848 15.2555 19.0904C14.9652 18.5968 15.2244 18.3292 15.4739 18.0831C15.6975 17.8619 15.9717 17.5065 16.2208 17.2183C16.4689 16.9299 16.5517 16.7242 16.7177 16.3949C16.8837 16.0653 16.8006 15.7769 16.6764 15.5299C16.5517 15.283 15.5847 12.8409 15.1422 11.8647Z" fill="#FDFCFC"/>
</g>
<defs>
<linearGradient id="paint0_linear_442_4033" x1="1820.18" y1="3638.36" x2="1820.18" y2="2" gradientUnits="userSpaceOnUse">
<stop stop-color="#1FAF38"/>
<stop offset="1" stop-color="#60D669"/>
</linearGradient>
</defs>
</svg>
