<svg width="40" height="40" viewBox="0 0 40 40" fill="none" xmlns="http://www.w3.org/2000/svg">
<circle cx="20" cy="20" r="20" fill="#F34D4D"/>
<path d="M29.0853 15.3623C28.8672 14.5308 28.2246 13.876 27.4088 13.6538C25.9299 13.25 20 13.25 20 13.25C20 13.25 14.0702 13.25 12.5913 13.6538C11.7755 13.8761 11.1329 14.5308 10.9148 15.3623C10.5186 16.8693 10.5186 20.0136 10.5186 20.0136C10.5186 20.0136 10.5186 23.1579 10.9148 24.665C11.1329 25.4964 11.7755 26.124 12.5913 26.3462C14.0702 26.75 20 26.75 20 26.75C20 26.75 25.9299 26.75 27.4088 26.3462C28.2246 26.124 28.8672 25.4964 29.0853 24.665C29.4815 23.1579 29.4815 20.0136 29.4815 20.0136C29.4815 20.0136 29.4815 16.8693 29.0853 15.3623ZM18.0606 22.8684V17.1588L23.0169 20.0137L18.0606 22.8684Z" fill="#FDFCFC"/>
</svg>
