<svg aria-hidden="true" style="position:absolute;width:0;height:0" xmlns="http://www.w3.org/2000/svg" overflow="hidden"><defs><symbol id="arrow" viewBox="0 0 32 32"><path d="M7.293 7.293a.999.999 0 011.414 0l15.626 15.626V8.693a1 1 0 012 0v16.64a1 1 0 01-1 1H8.693a1 1 0 010-2h14.226L7.293 8.707a.999.999 0 010-1.414z"/></symbol><symbol id="close" viewBox="0 0 32 32"><path d="M23.883 6.706L16 14.59 8.116 6.706a.998.998 0 00-1.41 1.412v-.001l7.879 7.884-7.882 7.882a.998.998 0 001.41 1.412l7.886-7.882 7.884 7.884a.998.998 0 001.409-1.411l.001.001-7.884-7.884 7.884-7.886a1 1 0 00.018-1.428.995.995 0 00-1.427.015v.002z"/></symbol><symbol id="play" viewBox="0 0 32 32"><path fill="transparent" d="M0 0h32v32H0V0z"/><path fill="none" stroke="var(--color2, #2031cb)" stroke-linejoin="round" stroke-linecap="round" stroke-width="2" d="M6.667 4l18.667 12L6.667 28V4z"/></symbol><symbol id="download" viewBox="0 0 32 32"><path fill="none" stroke="var(--color1, #2031cb)" stroke-linejoin="round" stroke-linecap="round" stroke-width="2" d="M28 20v5.333A2.67 2.67 0 0125.333 28H6.666a2.668 2.668 0 01-2.667-2.667V20m5.334-6.667L16 20l6.667-6.667M16 20V4"/></symbol><symbol id="play-outline" viewBox="0 0 32 32"><path fill="none" stroke="var(--color1, #cfcfcf)" d="M8 .5h16A7.5 7.5 0 0131.5 8v16a7.5 7.5 0 01-7.5 7.5H8A7.5 7.5 0 01.5 24V8A7.5 7.5 0 018 .5z"/><path fill="var(--color2, #fdfcfc)" d="M11 23a.997.997 0 01-1-1V10a1.002 1.002 0 011.448-.894l12 6a1.002 1.002 0 01.403 1.419 1.003 1.003 0 01-.403.369l-12 6a.993.993 0 01-.447.106zm1-11.382v8.764L20.764 16 12 11.618z"/><path fill="var(--color2, #fdfcfc)" d="M16 4a12.005 12.005 0 0111.087 7.407 12.002 12.002 0 01-2.601 13.077A11.999 11.999 0 117.517 7.513a12.003 12.003 0 018.485-3.515zm0-2A14.002 14.002 0 002.269 18.731a13.997 13.997 0 0019.089 10.202A14.003 14.003 0 0030 15.999a14.002 14.002 0 00-14-14z"/></symbol><symbol id="gmail" viewBox="0 0 32 32"><rect x=".5" y=".5" width="39" height="39" rx="19.5" stroke="#ACACAC"/><path d="M14 27.92v-8.199l-2.636-2.326L9 16.104v10.37c0 .8.672 1.447 1.5 1.447H14z" fill="#4285F4"/><path d="M26 27.92h3.5c.83 0 1.5-.648 1.5-1.446v-10.37l-2.677 1.478L26 19.721v8.2z" fill="#34A853"/><path d="M14 19.721l-.36-3.203.36-3.067 6 4.341 6-4.34.4 2.9-.4 3.37-6 4.34-6-4.34z" fill="#EA4335"/><path d="M26 13.451v6.27l5-3.617v-1.93c0-1.789-2.117-2.809-3.6-1.736L26 13.451z" fill="#FBBC04"/><path d="M9 16.104l2.3 1.664L14 19.72v-6.27l-1.4-1.013c-1.485-1.073-3.6-.053-3.6 1.736v1.93z" fill="#C5221F"/></symbol></defs></svg>