<svg aria-hidden="true" style="position:absolute;width:0;height:0" xmlns="http://www.w3.org/2000/svg" overflow="hidden"><defs><symbol id="arrow" viewBox="0 0 32 32"><path d="M7.293 7.293a.999.999 0 011.414 0l15.626 15.626V8.693a1 1 0 012 0v16.64a1 1 0 01-1 1H8.693a1 1 0 010-2h14.226L7.293 8.707a.999.999 0 010-1.414z"/></symbol><symbol id="close" viewBox="0 0 32 32"><path d="M23.883 6.706L16 14.59 8.116 6.706a.998.998 0 00-1.41 1.412v-.001l7.879 7.884-7.882 7.882a.998.998 0 001.41 1.412l7.886-7.882 7.884 7.884a.998.998 0 001.409-1.411l.001.001-7.884-7.884 7.884-7.886a1 1 0 00.018-1.428.995.995 0 00-1.427.015v.002z"/></symbol><symbol id="play" viewBox="0 0 32 32"><path fill="transparent" d="M0 0h32v32H0V0z"/><path fill="none" stroke="var(--color2, #2031cb)" stroke-linejoin="round" stroke-linecap="round" stroke-width="2" d="M6.667 4l18.667 12L6.667 28V4z"/></symbol><symbol id="download" viewBox="0 0 32 32"><path fill="none" stroke="var(--color1, #2031cb)" stroke-linejoin="round" stroke-linecap="round" stroke-width="2" d="M28 20v5.333A2.67 2.67 0 0125.333 28H6.666a2.668 2.668 0 01-2.667-2.667V20m5.334-6.667L16 20l6.667-6.667M16 20V4"/></symbol><symbol id="play-outline" viewBox="0 0 32 32"><path fill="none" stroke="var(--color1, #cfcfcf)" d="M8 .5h16A7.5 7.5 0 0131.5 8v16a7.5 7.5 0 01-7.5 7.5H8A7.5 7.5 0 01.5 24V8A7.5 7.5 0 018 .5z"/><path fill="var(--color2, #fdfcfc)" d="M11 23a.997.997 0 01-1-1V10a1.002 1.002 0 011.448-.894l12 6a1.002 1.002 0 01.403 1.419 1.003 1.003 0 01-.403.369l-12 6a.993.993 0 01-.447.106zm1-11.382v8.764L20.764 16 12 11.618z"/><path fill="var(--color2, #fdfcfc)" d="M16 4a12.005 12.005 0 0111.087 7.407 12.002 12.002 0 01-2.601 13.077A11.999 11.999 0 117.517 7.513a12.003 12.003 0 018.485-3.515zm0-2A14.002 14.002 0 002.269 18.731a13.997 13.997 0 0019.089 10.202A14.003 14.003 0 0030 15.999a14.002 14.002 0 00-14-14z"/></symbol><symbol id="icon-YouTube" viewBox="0 0 32 32"><path fill="var(--color1, #f34d4d)" d="M32 16c0 8.837-7.163 16-16 16S0 24.837 0 16 7.163 0 16 0s16 7.163 16 16z"/><path fill="var(--color2, #fdfcfc)" d="M23.267 12.29a1.918 1.918 0 00-1.341-1.367c-1.183-.323-5.927-.323-5.927-.323s-4.744 0-5.927.323a1.918 1.918 0 00-1.341 1.367c-.317 1.206-.317 3.721-.317 3.721s0 2.515.317 3.721a1.89 1.89 0 001.341 1.345c1.183.323 5.927.323 5.927.323s4.744 0 5.927-.323a1.888 1.888 0 001.341-1.345c.317-1.206.317-3.721.317-3.721s0-2.515-.317-3.721zm-8.819 6.005v-4.568l3.965 2.284-3.965 2.284z"/></symbol><symbol id="icon-Facebook" viewBox="0 0 33 32"><path fill="var(--color3, #4792f3)" d="M32.4 16c0-8.836-7.164-16-16-16S.4 7.163.4 16c0 7.986 5.851 14.605 13.5 15.806V20.625H9.838V16H13.9v-3.525c0-4.01 2.389-6.225 6.043-6.225 1.751 0 3.582.313 3.582.313v3.938h-2.017c-1.988 0-2.608 1.233-2.608 2.499v3.001h4.438l-.709 4.625h-3.728v11.181c7.649-1.2 13.5-7.819 13.5-15.806z"/><path fill="var(--color2, #fdfcfc)" d="M22.628 20.625L23.337 16h-4.438v-3.001c0-1.265.62-2.499 2.608-2.499h2.017V6.562s-1.831-.313-3.582-.313c-3.655 0-6.043 2.215-6.043 6.225v3.525H9.837v4.625h4.062v11.181c.827.13 1.663.195 2.5.194s1.673-.065 2.5-.194V20.624h3.728z"/></symbol><symbol id="icon-WhatsApp" viewBox="0 0 32 32"><path fill="var(--color1, #60d669)" d="M1.721 16.014a14.336 14.336 0 001.934 7.207L1.6 30.691l7.679-2.004a14.528 14.528 0 006.922 1.754h.006c7.983 0 14.481-6.467 14.484-14.415.002-3.852-1.504-7.473-4.239-10.198S20.081 1.602 16.206 1.6C8.222 1.6 1.725 8.066 1.721 16.014z"/><path fill="var(--color2, #fdfcfc)" d="M12.114 9.492c-.298-.658-.612-.671-.896-.683-.232-.01-.498-.009-.763-.009s-.697.099-1.061.494C9.029 9.689 8 10.645 8 12.588s1.427 3.822 1.626 4.086c.199.263 2.754 4.379 6.801 5.962 3.363 1.316 4.047 1.054 4.777.988s2.356-.955 2.687-1.878c.332-.922.332-1.713.232-1.878s-.365-.263-.763-.461-2.356-1.153-2.72-1.285-.63-.197-.896.198-1.028 1.284-1.26 1.548-.465.297-.863.099c-.398-.198-1.68-.615-3.202-1.96-1.184-1.047-1.982-2.34-2.215-2.736s-.025-.609.175-.806c.179-.177.398-.461.598-.692s.265-.395.398-.659.066-.494-.033-.692-.873-2.151-1.227-2.932z"/></symbol><symbol id="icon-Phone" viewBox="0 0 33 32"><path fill="none" stroke="var(--color5, #acacac)" stroke-width=".8" d="M16.4.4C25.016.4 32 7.384 32 16s-6.984 15.6-15.6 15.6S.8 24.616.8 16 7.784.4 16.4.4z"/><path d="M17.121 8.542c3.563.11 6.643 3.333 6.6 6.79-.003.088.003.176.017.263 0 .283-.017.577-.41.567-.447 0-.383-.44-.41-.777v-.09c-.477-3.667-2.183-5.403-5.903-5.967-.31-.037-.777.017-.767-.377.043-.593.59-.363.873-.41zm4.763 6.616a.281.281 0 01-.174.27.278.278 0 01-.11.023c-.403.073-.467-.163-.493-.43 0-.104-.009-.208-.027-.31-.393-2.23-1.197-3.05-3.483-3.557-.333-.073-.86-.037-.767-.54s.55-.333.913-.283c2.283.283 4.16 2.23 4.15 4.377-.01.13.007.313-.01.45zm-1.9-.293a.424.424 0 01-.2.053.352.352 0 01-.31-.12.64.64 0 01-.11-.31 1.645 1.645 0 00-1.536-1.6c-.283-.047-.567-.147-.43-.51.09-.257.333-.283.567-.283 1-.027 2.203 1.17 2.183 2.203a.623.623 0 01-.174.566h.01zm3.794 6.433c-.393 1.08-1.747 2.183-2.907 2.167a4.19 4.19 0 01-.777-.21c-4.16-1.743-7.377-4.413-9.563-8.07a19.632 19.632 0 01-1.333-2.667c-.703-1.69.027-3.117 1.81-3.71.305-.1.635-.1.94 0 .767.283 2.687 2.87 2.723 3.647.027.593-.373.913-.787 1.18a1.26 1.26 0 00-.667 1.156c.02.253.086.5.193.73a6.85 6.85 0 003.667 3.5c.593.267 1.17.237 1.58-.367.723-1.07 1.617-1 2.597-.357.477.333 1 .667 1.453 1.033.64.517 1.443.917 1.06 1.967h.01z"/></symbol><symbol id="icon-Gmail" viewBox="0 0 32 32"><path fill="none" stroke="var(--color5, #acacac)" stroke-width=".8" d="M16 .4C24.616.4 31.6 7.384 31.6 16S24.616 31.6 16 31.6.4 24.616.4 16 7.384.4 16 .4z"/><path fill="var(--color6, #4285f4)" d="M11.2 22.337v-6.56l-2.109-1.861L7.2 12.883v8.296c0 .64.538 1.158 1.2 1.158h2.8z"/><path fill="var(--color7, #34a853)" d="M20.8 22.337h2.8c.664 0 1.2-.519 1.2-1.158v-8.296l-2.142 1.183-1.858 1.711v6.56z"/><path fill="var(--color8, #ea4335)" d="M11.199 15.777l-.287-2.563.287-2.453 4.8 3.473 4.8-3.473.321 2.321-.321 2.696-4.8 3.473-4.8-3.473z"/><path fill="var(--color9, #fbbc04)" d="M20.8 10.761v5.016l4-2.894V11.34c0-1.432-1.694-2.248-2.88-1.389l-1.12.81z"/><path fill="var(--color10, #c5221f)" d="M7.2 12.883l4 2.894v-5.016l-1.12-.81C8.892 9.092 7.2 9.909 7.2 11.34v1.544z"/></symbol></defs></svg>