<svg aria-hidden="true" style="position:absolute;width:0;height:0" xmlns="http://www.w3.org/2000/svg" overflow="hidden"><defs><symbol id="arrow" viewBox="0 0 32 32"><path d="M7.293 7.293a.999.999 0 011.414 0l15.626 15.626V8.693a1 1 0 012 0v16.64a1 1 0 01-1 1H8.693a1 1 0 010-2h14.226L7.293 8.707a.999.999 0 010-1.414z"/></symbol><symbol id="close" viewBox="0 0 32 32"><path d="M23.883 6.706L16 14.59 8.116 6.706a.998.998 0 00-1.41 1.412v-.001l7.879 7.884-7.882 7.882a.998.998 0 001.41 1.412l7.886-7.882 7.884 7.884a.998.998 0 001.409-1.411l.001.001-7.884-7.884 7.884-7.886a1 1 0 00.018-1.428.995.995 0 00-1.427.015v.002z"/></symbol></defs></svg>