<svg aria-hidden="true" style="position: absolute; width: 0; height: 0; overflow: hidden;" version="1.1" xmlns="http://www.w3.org/2000/svg" xmlns:xlink="http://www.w3.org/1999/xlink">
<defs>

<symbol id="arrow" viewBox="0 0 32 32">
<path d="M7.293 7.293c0.391-0.391 1.024-0.391 1.414 0l15.626 15.626v-14.226c0-0.552 0.448-1 1-1s1 0.448 1 1v16.64c0 0.552-0.448 1-1 1h-16.64c-0.552 0-1-0.448-1-1s0.448-1 1-1h14.226l-15.626-15.626c-0.391-0.391-0.391-1.024 0-1.414z"></path>
</symbol>

<symbol id="close" viewBox="0 0 32 32">
<path d="M23.883 6.706l-7.883 7.884-7.884-7.884c-0.178-0.166-0.417-0.268-0.681-0.268-0.551 0-0.998 0.447-0.998 0.998 0 0.264 0.102 0.503 0.269 0.682l-0-0.001 7.879 7.884-7.882 7.882c-0.181 0.181-0.293 0.43-0.293 0.706 0 0.551 0.447 0.998 0.998 0.998 0.275 0 0.525-0.112 0.705-0.292l7.886-7.882 7.884 7.884c0.177 0.161 0.413 0.26 0.672 0.26 0.551 0 0.998-0.447 0.998-0.998 0-0.259-0.099-0.495-0.261-0.673l0.001 0.001-7.884-7.884 7.884-7.886c0.19-0.182 0.309-0.439 0.309-0.723 0-0.275-0.111-0.525-0.291-0.705l0 0c-0.181-0.181-0.43-0.293-0.706-0.293-0.284 0-0.54 0.118-0.721 0.308l-0 0v0.002z"></path>
</symbol>

<symbol id="play" viewBox="0 0 32 32">
<path fill="rgba(0,0,0,0)" style="fill: rgba(0,0,0,0)" d="M0 0h32v32h-32v-32z"></path>
<path fill="none" stroke="#2031cb" style="stroke: var(--color2, #2031cb)" stroke-linejoin="round" stroke-linecap="round" stroke-miterlimit="4" stroke-width="2" d="M6.667 4l18.667 12-18.667 12v-24z"></path>
</symbol>

<symbol id="download" viewBox="0 0 32 32">
<path fill="none" stroke="#2031cb" style="stroke: var(--color1, #2031cb)" stroke-linejoin="round" stroke-linecap="round" stroke-miterlimit="4" stroke-width="2" d="M28 20v5.333c0 0.707-0.281 1.385-0.781 1.886s-1.178 0.781-1.886 0.781h-18.667c-0.707 0-1.386-0.281-1.886-0.781s-0.781-1.178-0.781-1.886v-5.333"></path>
<path fill="none" stroke="#2031cb" style="stroke: var(--color1, #2031cb)" stroke-linejoin="round" stroke-linecap="round" stroke-miterlimit="4" stroke-width="2" d="M9.333 13.333l6.667 6.667 6.667-6.667"></path>
<path fill="none" stroke="#2031cb" style="stroke: var(--color1, #2031cb)" stroke-linejoin="round" stroke-linecap="round" stroke-miterlimit="4" stroke-width="2" d="M16 20v-16"></path>
</symbol>

<symbol id="play-outline" viewBox="0 0 32 32">
<path fill="none" stroke="#cfcfcf" style="stroke: var(--color1, #cfcfcf)" stroke-linejoin="miter" stroke-linecap="butt" stroke-miterlimit="4" stroke-width="1" d="M8 0.5h16c4.142 0 7.5 3.358 7.5 7.5v16c0 4.142-3.358 7.5-7.5 7.5h-16c-4.142 0-7.5-3.358-7.5-7.5v-16c0-4.142 3.358-7.5 7.5-7.5z"></path>
<path fill="#fdfcfc" style="fill: var(--color2, #fdfcfc)" d="M11 23c-0.265 0-0.52-0.105-0.707-0.293s-0.293-0.442-0.293-0.707v-12c0-0.17 0.044-0.338 0.127-0.487s0.203-0.274 0.348-0.363 0.31-0.141 0.481-0.148c0.17-0.008 0.34 0.028 0.492 0.104l12 6c0.166 0.083 0.305 0.211 0.403 0.369s0.149 0.34 0.149 0.525c0 0.186-0.052 0.367-0.149 0.525s-0.237 0.285-0.403 0.369l-12 6c-0.139 0.070-0.292 0.106-0.447 0.106zM12 11.618v8.764l8.764-4.382-8.764-4.382z"></path>
<path fill="#fdfcfc" style="fill: var(--color2, #fdfcfc)" d="M16 4c2.373 0 4.694 0.704 6.667 2.022s3.511 3.193 4.42 5.385c0.908 2.193 1.146 4.606 0.683 6.933s-1.606 4.466-3.284 6.144-3.816 2.821-6.144 3.284c-2.328 0.463-4.741 0.225-6.933-0.683s-4.067-2.446-5.385-4.42c-1.319-1.973-2.022-4.293-2.022-6.667 0-3.183 1.264-6.235 3.515-8.485s5.303-3.515 8.485-3.515zM16 2c-2.769 0-5.476 0.821-7.778 2.359s-4.097 3.725-5.156 6.283c-1.060 2.558-1.337 5.373-0.797 8.089s1.874 5.21 3.832 7.168 4.452 3.291 7.168 3.831c2.716 0.54 5.531 0.263 8.089-0.797s4.745-2.854 6.283-5.156c1.538-2.302 2.359-5.009 2.359-7.778 0-3.713-1.475-7.274-4.101-9.899s-6.186-4.101-9.899-4.101z"></path>
</symbol>

<symbol id="icon-YouTube" viewBox="0 0 32 32">
<path fill="#f34d4d" style="fill: var(--color1, #f34d4d)" d="M32 16c0 8.837-7.163 16-16 16s-16-7.163-16-16c0-8.837 7.163-16 16-16s16 7.163 16 16z"></path>
<path fill="#fdfcfc" style="fill: var(--color2, #fdfcfc)" d="M23.267 12.29c-0.174-0.665-0.688-1.189-1.341-1.367-1.183-0.323-5.927-0.323-5.927-0.323s-4.744 0-5.927 0.323c-0.653 0.178-1.167 0.702-1.341 1.367-0.317 1.206-0.317 3.721-0.317 3.721s0 2.515 0.317 3.721c0.174 0.665 0.689 1.167 1.341 1.345 1.183 0.323 5.927 0.323 5.927 0.323s4.744 0 5.927-0.323c0.653-0.178 1.167-0.68 1.341-1.345 0.317-1.206 0.317-3.721 0.317-3.721s0-2.515-0.317-3.721zM14.448 18.295v-4.568l3.965 2.284-3.965 2.284z"></path>
</symbol>

<symbol id="icon-Facebook" viewBox="0 0 33 32">
<path fill="#4792f3" style="fill: var(--color3, #4792f3)" d="M32.4 16c0-8.836-7.164-16-16-16s-16 7.163-16 16c0 7.986 5.851 14.605 13.5 15.806v-11.181h-4.062v-4.625h4.062v-3.525c0-4.010 2.389-6.225 6.043-6.225 1.751 0 3.582 0.313 3.582 0.313v3.938h-2.017c-1.988 0-2.608 1.233-2.608 2.499v3.001h4.438l-0.709 4.625h-3.728v11.181c7.649-1.2 13.5-7.819 13.5-15.806z"></path>
<path fill="#fdfcfc" style="fill: var(--color2, #fdfcfc)" d="M22.628 20.625l0.709-4.625h-4.438v-3.001c0-1.265 0.62-2.499 2.608-2.499h2.017v-3.938c0 0-1.831-0.313-3.582-0.313-3.655 0-6.043 2.215-6.043 6.225v3.525h-4.062v4.625h4.062v11.181c0.827 0.13 1.663 0.195 2.5 0.194s1.673-0.065 2.5-0.194v-11.181h3.728z"></path>
</symbol>

<symbol id="icon-WhatsApp" viewBox="0 0 32 32">
<path fill="#60d669" style="fill: var(--color1, #60d669)" d="M1.721 16.014c-0.001 2.54 0.666 5.021 1.934 7.207l-2.055 7.47 7.679-2.004c2.124 1.151 4.503 1.754 6.922 1.754h0.006c7.983 0 14.481-6.467 14.484-14.415 0.002-3.852-1.504-7.473-4.239-10.198s-6.371-4.226-10.246-4.228c-7.984 0-14.481 6.466-14.485 14.414z"></path>
<path fill="#fdfcfc" style="fill: var(--color2, #fdfcfc)" d="M12.114 9.492c-0.298-0.658-0.612-0.671-0.896-0.683-0.232-0.010-0.498-0.009-0.763-0.009s-0.697 0.099-1.061 0.494c-0.365 0.395-1.394 1.351-1.394 3.294s1.427 3.822 1.626 4.086c0.199 0.263 2.754 4.379 6.801 5.962 3.363 1.316 4.047 1.054 4.777 0.988s2.356-0.955 2.687-1.878c0.332-0.922 0.332-1.713 0.232-1.878s-0.365-0.263-0.763-0.461c-0.398-0.198-2.356-1.153-2.72-1.285s-0.63-0.197-0.896 0.198c-0.266 0.395-1.028 1.284-1.26 1.548s-0.465 0.297-0.863 0.099c-0.398-0.198-1.68-0.615-3.202-1.96-1.184-1.047-1.982-2.34-2.215-2.736s-0.025-0.609 0.175-0.806c0.179-0.177 0.398-0.461 0.598-0.692s0.265-0.395 0.398-0.659c0.133-0.264 0.066-0.494-0.033-0.692s-0.873-2.151-1.227-2.932z"></path>
</symbol>

<symbol id="icon-Phone" viewBox="0 0 33 32">
<path fill="none" stroke="#acacac" style="stroke: var(--color5, #acacac)" stroke-linejoin="miter" stroke-linecap="butt" stroke-miterlimit="4" stroke-width="0.8" d="M16.4 0.4c8.616 0 15.6 6.984 15.6 15.6s-6.984 15.6-15.6 15.6c-8.616 0-15.6-6.984-15.6-15.6s6.984-15.6 15.6-15.6z"></path>
<path d="M17.121 8.542c3.563 0.11 6.643 3.333 6.6 6.79-0.003 0.088 0.003 0.176 0.017 0.263 0 0.283-0.017 0.577-0.41 0.567-0.447 0-0.383-0.44-0.41-0.777v-0.090c-0.477-3.667-2.183-5.403-5.903-5.967-0.31-0.037-0.777 0.017-0.767-0.377 0.043-0.593 0.59-0.363 0.873-0.41zM21.884 15.158c0.001 0.038-0.006 0.076-0.020 0.111s-0.034 0.068-0.061 0.095c-0.026 0.027-0.058 0.049-0.093 0.064s-0.072 0.023-0.11 0.023c-0.403 0.073-0.467-0.163-0.493-0.43 0-0.104-0.009-0.208-0.027-0.31-0.393-2.23-1.197-3.050-3.483-3.557-0.333-0.073-0.86-0.037-0.767-0.54s0.55-0.333 0.913-0.283c2.283 0.283 4.16 2.23 4.15 4.377-0.010 0.13 0.007 0.313-0.010 0.45zM19.984 14.865c-0.061 0.034-0.13 0.052-0.2 0.053-0.058 0.007-0.116-0.001-0.17-0.022s-0.102-0.055-0.14-0.098c-0.063-0.092-0.101-0.199-0.11-0.31-0.011-0.41-0.174-0.802-0.458-1.098s-0.669-0.475-1.078-0.502c-0.283-0.047-0.567-0.147-0.43-0.51 0.090-0.257 0.333-0.283 0.567-0.283 1-0.027 2.203 1.17 2.183 2.203 0.021 0.101 0.016 0.206-0.015 0.305s-0.085 0.189-0.159 0.261h0.010zM23.778 21.298c-0.393 1.080-1.747 2.183-2.907 2.167-0.265-0.045-0.525-0.115-0.777-0.21-4.16-1.743-7.377-4.413-9.563-8.070-0.511-0.854-0.957-1.745-1.333-2.667-0.703-1.69 0.027-3.117 1.81-3.71 0.305-0.1 0.635-0.1 0.94 0 0.767 0.283 2.687 2.87 2.723 3.647 0.027 0.593-0.373 0.913-0.787 1.18-0.209 0.111-0.382 0.278-0.5 0.482s-0.176 0.438-0.167 0.674c0.020 0.253 0.086 0.5 0.193 0.73 0.73 1.593 2.042 2.845 3.667 3.5 0.593 0.267 1.17 0.237 1.58-0.367 0.723-1.070 1.617-1 2.597-0.357 0.477 0.333 1 0.667 1.453 1.033 0.64 0.517 1.443 0.917 1.060 1.967h0.010z"></path>
</symbol>

<symbol id="icon-Gmail" viewBox="0 0 32 32">
<path fill="none" stroke="#acacac" style="stroke: var(--color5, #acacac)" stroke-linejoin="miter" stroke-linecap="butt" stroke-miterlimit="4" stroke-width="0.8" d="M16 0.4c8.616 0 15.6 6.984 15.6 15.6s-6.984 15.6-15.6 15.6c-8.616 0-15.6-6.984-15.6-15.6s6.984-15.6 15.6-15.6z"></path>
<path fill="#4285f4" style="fill: var(--color6, #4285f4)" d="M11.2 22.337v-6.56l-2.109-1.861-1.891-1.033v8.296c0 0.64 0.538 1.158 1.2 1.158h2.8z"></path>
<path fill="#34a853" style="fill: var(--color7, #34a853)" d="M20.8 22.337h2.8c0.664 0 1.2-0.519 1.2-1.158v-8.296l-2.142 1.183-1.858 1.711v6.56z"></path>
<path fill="#ea4335" style="fill: var(--color8, #ea4335)" d="M11.199 15.777l-0.287-2.563 0.287-2.453 4.8 3.473 4.8-3.473 0.321 2.321-0.321 2.696-4.8 3.473-4.8-3.473z"></path>
<path fill="#fbbc04" style="fill: var(--color9, #fbbc04)" d="M20.8 10.761v5.016l4-2.894v-1.543c0-1.432-1.694-2.248-2.88-1.389l-1.12 0.81z"></path>
<path fill="#c5221f" style="fill: var(--color10, #c5221f)" d="M7.2 12.883l4 2.894v-5.016l-1.12-0.81c-1.188-0.859-2.88-0.042-2.88 1.389v1.544z"></path>
</symbol>

</defs>
</svg>
