<svg aria-hidden="true" style="position: absolute; width: 0; height: 0; overflow: hidden;" version="1.1" xmlns="http://www.w3.org/2000/svg" xmlns:xlink="http://www.w3.org/1999/xlink">
<defs>
<symbol id="arrow" viewBox="0 0 32 32">
<path d="M7.293 7.293c0.391-0.391 1.024-0.391 1.414 0l15.626 15.626v-14.226c0-0.552 0.448-1 1-1s1 0.448 1 1v16.64c0 0.552-0.448 1-1 1h-16.64c-0.552 0-1-0.448-1-1s0.448-1 1-1h14.226l-15.626-15.626c-0.391-0.391-0.391-1.024 0-1.414z"></path>
</symbol>
<symbol id="close" viewBox="0 0 32 32">
<path d="M23.883 6.706l-7.883 7.884-7.884-7.884c-0.178-0.166-0.417-0.268-0.681-0.268-0.551 0-0.998 0.447-0.998 0.998 0 0.264 0.102 0.503 0.269 0.682l-0-0.001 7.879 7.884-7.882 7.882c-0.181 0.181-0.293 0.43-0.293 0.706 0 0.551 0.447 0.998 0.998 0.998 0.275 0 0.525-0.112 0.705-0.292l7.886-7.882 7.884 7.884c0.177 0.161 0.413 0.26 0.672 0.26 0.551 0 0.998-0.447 0.998-0.998 0-0.259-0.099-0.495-0.261-0.673l0.001 0.001-7.884-7.884 7.884-7.886c0.19-0.182 0.309-0.439 0.309-0.723 0-0.275-0.111-0.525-0.291-0.705l0 0c-0.181-0.181-0.43-0.293-0.706-0.293-0.284 0-0.54 0.118-0.721 0.308l-0 0v0.002z"></path>
</symbol>
<symbol id="vector" viewBox="0 0 26 32">
<path fill="none" stroke="#2031cb" style="stroke: var(--color3, #2031cb)" stroke-linejoin="round" stroke-linecap="round" stroke-miterlimit="4" stroke-width="2.4" d="M1.6 1.6l22.4 14.4-22.4 14.4v-28.8z"></path>
</symbol>
<symbol id="download" viewBox="0 0 32 32">
<path fill="none" stroke="#2031cb" style="stroke: var(--color1, #2031cb)" stroke-linejoin="round" stroke-linecap="round" stroke-miterlimit="4" stroke-width="2" d="M28 20v5.333c0 0.707-0.281 1.385-0.781 1.886s-1.178 0.781-1.886 0.781h-18.667c-0.707 0-1.386-0.281-1.886-0.781s-0.781-1.178-0.781-1.886v-5.333"></path>
<path fill="none" stroke="#2031cb" style="stroke: var(--color1, #2031cb)" stroke-linejoin="round" stroke-linecap="round" stroke-miterlimit="4" stroke-width="2" d="M9.333 13.333l6.667 6.667 6.667-6.667"></path>
<path fill="none" stroke="#2031cb" style="stroke: var(--color1, #2031cb)" stroke-linejoin="round" stroke-linecap="round" stroke-miterlimit="4" stroke-width="2" d="M16 20v-16"></path>
</symbol>
<symbol id="play-outline" viewBox="0 0 32 32">
<path fill="none" stroke="#cfcfcf" style="stroke: var(--color1, #cfcfcf)" stroke-linejoin="miter" stroke-linecap="butt" stroke-miterlimit="4" stroke-width="1" d="M8 0.5h16c4.142 0 7.5 3.358 7.5 7.5v16c0 4.142-3.358 7.5-7.5 7.5h-16c-4.142 0-7.5-3.358-7.5-7.5v-16c0-4.142 3.358-7.5 7.5-7.5z"></path>
<path fill="#fdfcfc" style="fill: var(--color2, #fdfcfc)" d="M11 23c-0.265 0-0.52-0.105-0.707-0.293s-0.293-0.442-0.293-0.707v-12c0-0.17 0.044-0.338 0.127-0.487s0.203-0.274 0.348-0.363 0.31-0.141 0.481-0.148c0.17-0.008 0.34 0.028 0.492 0.104l12 6c0.166 0.083 0.305 0.211 0.403 0.369s0.149 0.34 0.149 0.525c0 0.186-0.052 0.367-0.149 0.525s-0.237 0.285-0.403 0.369l-12 6c-0.139 0.070-0.292 0.106-0.447 0.106zM12 11.618v8.764l8.764-4.382-8.764-4.382z"></path>
<path fill="#fdfcfc" style="fill: var(--color2, #fdfcfc)" d="M16 4c2.373 0 4.694 0.704 6.667 2.022s3.511 3.193 4.42 5.385c0.908 2.193 1.146 4.606 0.683 6.933s-1.606 4.466-3.284 6.144-3.816 2.821-6.144 3.284c-2.328 0.463-4.741 0.225-6.933-0.683s-4.067-2.446-5.385-4.42c-1.319-1.973-2.022-4.293-2.022-6.667 0-3.183 1.264-6.235 3.515-8.485s5.303-3.515 8.485-3.515zM16 2c-2.769 0-5.476 0.821-7.778 2.359s-4.097 3.725-5.156 6.283c-1.060 2.558-1.337 5.373-0.797 8.089s1.874 5.21 3.832 7.168 4.452 3.291 7.168 3.831c2.716 0.54 5.531 0.263 8.089-0.797s4.745-2.854 6.283-5.156c1.538-2.302 2.359-5.009 2.359-7.778 0-3.713-1.475-7.274-4.101-9.899s-6.186-4.101-9.899-4.101z"></path>
</symbol>
</defs>
</svg>
