<svg aria-hidden="true" style="position: absolute; width: 0; height: 0; overflow: hidden;" version="1.1" xmlns="http://www.w3.org/2000/svg" xmlns:xlink="http://www.w3.org/1999/xlink">
<defs>
<symbol id="arrow" viewBox="0 0 32 32">
<path d="M7.293 7.293c0.391-0.391 1.024-0.391 1.414 0l15.626 15.626v-14.226c0-0.552 0.448-1 1-1s1 0.448 1 1v16.64c0 0.552-0.448 1-1 1h-16.64c-0.552 0-1-0.448-1-1s0.448-1 1-1h14.226l-15.626-15.626c-0.391-0.391-0.391-1.024 0-1.414z"></path>
</symbol>
<symbol id="close" viewBox="0 0 32 32">
<path d="M23.883 6.706l-7.883 7.884-7.884-7.884c-0.178-0.166-0.417-0.268-0.681-0.268-0.551 0-0.998 0.447-0.998 0.998 0 0.264 0.102 0.503 0.269 0.682l-0-0.001 7.879 7.884-7.882 7.882c-0.181 0.181-0.293 0.43-0.293 0.706 0 0.551 0.447 0.998 0.998 0.998 0.275 0 0.525-0.112 0.705-0.292l7.886-7.882 7.884 7.884c0.177 0.161 0.413 0.26 0.672 0.26 0.551 0 0.998-0.447 0.998-0.998 0-0.259-0.099-0.495-0.261-0.673l0.001 0.001-7.884-7.884 7.884-7.886c0.19-0.182 0.309-0.439 0.309-0.723 0-0.275-0.111-0.525-0.291-0.705l0 0c-0.181-0.181-0.43-0.293-0.706-0.293-0.284 0-0.54 0.118-0.721 0.308l-0 0v0.002z"></path>
</symbol>
<symbol id="play" viewBox="0 0 32 32">
<path fill="rgba(0,0,0,0)" style="fill: rgba(0,0,0,0)" d="M0 0h32v32h-32v-32z"></path>
<path fill="none" stroke="#2031cb" style="stroke: var(--color2, #2031cb)" stroke-linejoin="round" stroke-linecap="round" stroke-miterlimit="4" stroke-width="2" d="M6.667 4l18.667 12-18.667 12v-24z"></path>
</symbol>
<symbol id="download" viewBox="0 0 32 32">
<path fill="none" stroke="#2031cb" style="stroke: var(--color1, #2031cb)" stroke-linejoin="round" stroke-linecap="round" stroke-miterlimit="4" stroke-width="2" d="M28 20v5.333c0 0.707-0.281 1.385-0.781 1.886s-1.178 0.781-1.886 0.781h-18.667c-0.707 0-1.386-0.281-1.886-0.781s-0.781-1.178-0.781-1.886v-5.333"></path>
<path fill="none" stroke="#2031cb" style="stroke: var(--color1, #2031cb)" stroke-linejoin="round" stroke-linecap="round" stroke-miterlimit="4" stroke-width="2" d="M9.333 13.333l6.667 6.667 6.667-6.667"></path>
<path fill="none" stroke="#2031cb" style="stroke: var(--color1, #2031cb)" stroke-linejoin="round" stroke-linecap="round" stroke-miterlimit="4" stroke-width="2" d="M16 20v-16"></path>
</symbol>
<symbol id="play-outline" viewBox="0 0 32 32">
<path fill="none" stroke="#cfcfcf" style="stroke: var(--color1, #cfcfcf)" stroke-linejoin="miter" stroke-linecap="butt" stroke-miterlimit="4" stroke-width="1" d="M8 0.5h16c4.142 0 7.5 3.358 7.5 7.5v16c0 4.142-3.358 7.5-7.5 7.5h-16c-4.142 0-7.5-3.358-7.5-7.5v-16c0-4.142 3.358-7.5 7.5-7.5z"></path>
<path fill="#fdfcfc" style="fill: var(--color2, #fdfcfc)" d="M11 23c-0.265 0-0.52-0.105-0.707-0.293s-0.293-0.442-0.293-0.707v-12c0-0.17 0.044-0.338 0.127-0.487s0.203-0.274 0.348-0.363 0.31-0.141 0.481-0.148c0.17-0.008 0.34 0.028 0.492 0.104l12 6c0.166 0.083 0.305 0.211 0.403 0.369s0.149 0.34 0.149 0.525c0 0.186-0.052 0.367-0.149 0.525s-0.237 0.285-0.403 0.369l-12 6c-0.139 0.070-0.292 0.106-0.447 0.106zM12 11.618v8.764l8.764-4.382-8.764-4.382z"></path>
<path fill="#fdfcfc" style="fill: var(--color2, #fdfcfc)" d="M16 4c2.373 0 4.694 0.704 6.667 2.022s3.511 3.193 4.42 5.385c0.908 2.193 1.146 4.606 0.683 6.933s-1.606 4.466-3.284 6.144-3.816 2.821-6.144 3.284c-2.328 0.463-4.741 0.225-6.933-0.683s-4.067-2.446-5.385-4.42c-1.319-1.973-2.022-4.293-2.022-6.667 0-3.183 1.264-6.235 3.515-8.485s5.303-3.515 8.485-3.515zM16 2c-2.769 0-5.476 0.821-7.778 2.359s-4.097 3.725-5.156 6.283c-1.060 2.558-1.337 5.373-0.797 8.089s1.874 5.21 3.832 7.168 4.452 3.291 7.168 3.831c2.716 0.54 5.531 0.263 8.089-0.797s4.745-2.854 6.283-5.156c1.538-2.302 2.359-5.009 2.359-7.778 0-3.713-1.475-7.274-4.101-9.899s-6.186-4.101-9.899-4.101z"></path>
</symbol>
<symbol id="fon_left" viewBox="0 0 37 32">
<path fill="#8fcecb" style="fill: var(--color1, #8fcecb)" d="M20.006 1.802c-1.71-0.34-3.483-0.166-5.094 0.502s-2.988 1.797-3.957 3.247-1.486 3.154-1.486 4.898c0 1.158 0.228 2.304 0.671 3.374s1.092 2.042 1.911 2.86c0.819 0.819 1.791 1.468 2.86 1.911s2.216 0.671 3.374 0.671c1.744 0 3.448-0.517 4.898-1.486s2.58-2.346 3.247-3.957c0.667-1.611 0.842-3.384 0.502-5.094s-1.18-3.281-2.413-4.514c-1.233-1.233-2.804-2.073-4.514-2.413zM15.456 3.618c1.351-0.56 2.838-0.706 4.272-0.421s2.752 0.989 3.786 2.024 1.738 2.351 2.023 3.786c0.285 1.434 0.139 2.921-0.421 4.272s-1.507 2.506-2.723 3.318c-1.216 0.812-2.645 1.246-4.108 1.246-0.971 0-1.932-0.191-2.829-0.563s-1.712-0.916-2.399-1.603c-0.687-0.687-1.231-1.502-1.603-2.399s-0.563-1.858-0.563-2.829c0-1.462 0.434-2.892 1.246-4.108s1.967-2.164 3.318-2.723z"></path>
<path fill="#ae9ac5" style="fill: var(--color2, #ae9ac5)" d="M0.3 9.116c0-0.511 0.154-1.011 0.443-1.436s0.699-0.756 1.178-0.952c0.48-0.196 1.008-0.247 1.517-0.147s0.977 0.346 1.344 0.707c0.367 0.362 0.617 0.822 0.719 1.324s0.049 1.021-0.149 1.494c-0.199 0.472-0.535 0.876-0.967 1.16s-0.939 0.436-1.459 0.436c-0.345 0-0.686-0.066-1.005-0.196s-0.608-0.32-0.852-0.56-0.437-0.525-0.569-0.839c-0.132-0.314-0.2-0.65-0.199-0.99z"></path>
<path fill="#f1cc75" style="fill: var(--color3, #f1cc75)" d="M31.32 2.585c0-0.511 0.154-1.011 0.442-1.436s0.699-0.756 1.178-0.952c0.48-0.196 1.008-0.247 1.517-0.147s0.977 0.346 1.344 0.707c0.367 0.362 0.617 0.822 0.718 1.324s0.050 1.021-0.149 1.494-0.535 0.876-0.967 1.16c-0.432 0.284-0.939 0.436-1.459 0.436-0.345 0-0.686-0.066-1.005-0.196s-0.608-0.32-0.852-0.56-0.437-0.525-0.569-0.839c-0.132-0.314-0.2-0.65-0.199-0.99z"></path>
<path fill="#f1cc75" style="fill: var(--color3, #f1cc75)" d="M5.611 22.204h-0.899c-0.799 0-1.446 0.629-1.446 1.405v6.985c0 0.776 0.647 1.405 1.446 1.405h0.899c0.799 0 1.446-0.629 1.446-1.405v-6.985c0-0.776-0.647-1.405-1.446-1.405z"></path>
</symbol>
<symbol id="fon_right" viewBox="0 0 39 32">
<path fill="#8fcecb" style="fill: var(--color1, #8fcecb)" d="M20.004 4.758c-1.214-0.242-2.473-0.118-3.617 0.356s-2.122 1.276-2.81 2.306c-0.688 1.030-1.055 2.24-1.055 3.478 0 0.822 0.162 1.636 0.477 2.396s0.776 1.45 1.357 2.031c0.581 0.581 1.272 1.043 2.031 1.357s1.574 0.477 2.396 0.477c1.238 0 2.449-0.367 3.478-1.055s1.832-1.666 2.306-2.81c0.474-1.144 0.598-2.403 0.356-3.617s-0.838-2.33-1.713-3.206c-0.876-0.876-1.991-1.472-3.206-1.713zM16.773 6.048c0.959-0.397 2.015-0.501 3.034-0.299s1.954 0.703 2.688 1.437c0.734 0.734 1.234 1.67 1.437 2.688s0.099 2.074-0.299 3.034c-0.397 0.959-1.070 1.779-1.934 2.356s-1.879 0.885-2.917 0.885c-0.69 0-1.372-0.136-2.009-0.4s-1.216-0.651-1.703-1.138c-0.488-0.488-0.874-1.066-1.138-1.703s-0.4-1.32-0.4-2.009c0-1.038 0.308-2.054 0.885-2.917s1.397-1.536 2.356-1.934z"></path>
<path fill="#ae9ac5" style="fill: var(--color2, #ae9ac5)" d="M2.319 6.725c0-0.413 0.122-0.816 0.352-1.159s0.555-0.611 0.937-0.769c0.381-0.158 0.801-0.199 1.206-0.119s0.777 0.279 1.069 0.571c0.292 0.292 0.491 0.664 0.571 1.069s0.039 0.824-0.119 1.206c-0.158 0.381-0.425 0.707-0.769 0.937s-0.747 0.352-1.159 0.352c-0.274 0-0.546-0.054-0.799-0.158s-0.483-0.258-0.677-0.452c-0.194-0.194-0.348-0.424-0.452-0.677s-0.159-0.525-0.158-0.799z"></path>
<path fill="#f1cc75" style="fill: var(--color3, #f1cc75)" d="M30.609 11.13c0-0.459 0.136-0.907 0.391-1.288s0.617-0.679 1.041-0.854 0.89-0.221 1.34-0.132c0.45 0.089 0.863 0.31 1.187 0.635s0.545 0.737 0.635 1.187c0.089 0.45 0.044 0.916-0.132 1.34s-0.473 0.786-0.854 1.041c-0.381 0.255-0.83 0.391-1.288 0.391-0.305 0-0.606-0.060-0.888-0.176s-0.537-0.287-0.753-0.503-0.386-0.471-0.503-0.752c-0.116-0.281-0.176-0.583-0.176-0.888z"></path>
<path fill="#f1cc75" style="fill: var(--color3, #f1cc75)" d="M7.685 12.522h-1.278c-1.134 0-2.054 0.894-2.054 1.996v9.921c0 1.102 0.92 1.996 2.054 1.996h1.278c1.134 0 2.054-0.894 2.054-1.996v-9.921c0-1.102-0.92-1.996-2.054-1.996z"></path>
</symbol>
</defs>
</svg>
