<svg aria-hidden="true" style="position: absolute; width: 0; height: 0; overflow: hidden;" version="1.1" xmlns="http://www.w3.org/2000/svg" xmlns:xlink="http://www.w3.org/1999/xlink">
<defs>
<symbol id="arrow" viewBox="0 0 32 32">
<path d="M7.293 7.293c0.391-0.391 1.024-0.391 1.414 0l15.626 15.626v-14.226c0-0.552 0.448-1 1-1s1 0.448 1 1v16.64c0 0.552-0.448 1-1 1h-16.64c-0.552 0-1-0.448-1-1s0.448-1 1-1h14.226l-15.626-15.626c-0.391-0.391-0.391-1.024 0-1.414z"></path>
</symbol>
<symbol id="close" viewBox="0 0 32 32">
<path d="M23.883 6.706l-7.883 7.884-7.884-7.884c-0.178-0.166-0.417-0.268-0.681-0.268-0.551 0-0.998 0.447-0.998 0.998 0 0.264 0.102 0.503 0.269 0.682l-0-0.001 7.879 7.884-7.882 7.882c-0.181 0.181-0.293 0.43-0.293 0.706 0 0.551 0.447 0.998 0.998 0.998 0.275 0 0.525-0.112 0.705-0.292l7.886-7.882 7.884 7.884c0.177 0.161 0.413 0.26 0.672 0.26 0.551 0 0.998-0.447 0.998-0.998 0-0.259-0.099-0.495-0.261-0.673l0.001 0.001-7.884-7.884 7.884-7.886c0.19-0.182 0.309-0.439 0.309-0.723 0-0.275-0.111-0.525-0.291-0.705l0 0c-0.181-0.181-0.43-0.293-0.706-0.293-0.284 0-0.54 0.118-0.721 0.308l-0 0v0.002z"></path>
</symbol>
</defs>
</svg>
