<svg width="66" height="41" viewBox="0 0 66 41" fill="none" xmlns="http://www.w3.org/2000/svg">
<path d="M0.858398 32.3295V27.5355L17.8293 0.727272H21.607V7.78409H19.21L7.07147 26.9986V27.3054H30.3321V32.3295H0.858398ZM19.4784 40V30.8722L19.5168 28.6861V0.727272H25.1354V40H19.4784ZM50.6876 40.652C47.6578 40.6392 45.069 39.8402 42.9213 38.255C40.7735 36.6697 39.1308 34.3622 37.993 31.3324C36.8552 28.3026 36.2863 24.6527 36.2863 20.3828C36.2863 16.1257 36.8552 12.4886 37.993 9.47159C39.1436 6.45454 40.7927 4.15341 42.9404 2.56818C45.1009 0.982954 47.6833 0.190339 50.6876 0.190339C53.6919 0.190339 56.2678 0.989345 58.4156 2.58736C60.5633 4.17258 62.2061 6.47372 63.3438 9.49077C64.4944 12.495 65.0697 16.1257 65.0697 20.3828C65.0697 24.6655 64.5008 28.3217 63.363 31.3516C62.2252 34.3686 60.5825 36.6761 58.4347 38.2741C56.287 39.8594 53.7046 40.652 50.6876 40.652ZM50.6876 35.532C53.3467 35.532 55.4241 34.2344 56.9198 31.6392C58.4284 29.044 59.1826 25.2919 59.1826 20.3828C59.1826 17.1229 58.8374 14.3679 58.1471 12.1179C57.4695 9.85511 56.4916 8.14204 55.2132 6.97869C53.9475 5.80255 52.439 5.21449 50.6876 5.21449C48.0413 5.21449 45.9639 6.51846 44.4553 9.12642C42.9468 11.7344 42.1862 15.4865 42.1734 20.3828C42.1734 23.6555 42.5122 26.4233 43.1897 28.6861C43.8801 30.9361 44.858 32.6428 46.1237 33.8061C47.3893 34.9567 48.9106 35.532 50.6876 35.532Z" fill="#663A7B"/>
</svg>
