<svg width="29" height="41" viewBox="0 0 29 41" fill="none" xmlns="http://www.w3.org/2000/svg">
<path d="M14.988 40.5369C12.2394 40.5369 9.81046 40.0639 7.70108 39.1179C5.60449 38.1719 3.96174 36.8679 2.77282 35.206C1.5839 33.544 0.995828 31.652 1.00861 29.5298C0.995828 27.8679 1.33461 26.3402 2.02495 24.9467C2.72807 23.5405 3.68049 22.3707 4.88219 21.4375C6.0839 20.4915 7.42623 19.8906 8.90918 19.6349V19.4048C6.95321 18.9318 5.38716 17.8835 4.21103 16.2599C3.03489 14.6364 2.45321 12.7699 2.466 10.6605C2.45321 8.65341 2.98375 6.86363 4.05762 5.29119C5.14426 3.70596 6.63361 2.45952 8.52566 1.55184C10.4177 0.644175 12.5718 0.190339 14.988 0.190339C17.3786 0.190339 19.5136 0.650567 21.3928 1.57102C23.2849 2.47869 24.7742 3.72514 25.8609 5.31037C26.9475 6.88281 27.4972 8.66619 27.51 10.6605C27.4972 12.7699 26.8964 14.6364 25.7075 16.2599C24.5186 17.8835 22.9717 18.9318 21.0669 19.4048V19.6349C22.537 19.8906 23.8602 20.4915 25.0363 21.4375C26.2252 22.3707 27.1713 23.5405 27.8744 24.9467C28.5903 26.3402 28.9546 27.8679 28.9674 29.5298C28.9546 31.652 28.3538 33.544 27.1649 35.206C25.9759 36.8679 24.3268 38.1719 22.2174 39.1179C20.1208 40.0639 17.711 40.5369 14.988 40.5369ZM14.988 35.6854C16.6116 35.6854 18.0178 35.4169 19.2068 34.88C20.3957 34.3303 21.3161 33.5696 21.9681 32.598C22.6201 31.6136 22.9525 30.4631 22.9653 29.1463C22.9525 27.7784 22.5945 26.5703 21.8914 25.522C21.2011 24.4737 20.2615 23.6491 19.0725 23.0483C17.8836 22.4474 16.5221 22.147 14.988 22.147C13.4411 22.147 12.0669 22.4474 10.8651 23.0483C9.66344 23.6491 8.71742 24.4737 8.02708 25.522C7.33674 26.5703 6.99796 27.7784 7.01074 29.1463C6.99796 30.4631 7.31117 31.6136 7.95037 32.598C8.60236 33.5696 9.52921 34.3303 10.7309 34.88C11.9326 35.4169 13.3517 35.6854 14.988 35.6854ZM14.988 17.4105C16.292 17.4105 17.449 17.1484 18.4589 16.6243C19.4688 16.1001 20.2615 15.3714 20.8367 14.4382C21.4248 13.505 21.7252 12.4119 21.738 11.1591C21.7252 9.93182 21.4312 8.85795 20.8559 7.9375C20.2934 7.01705 19.5072 6.30753 18.4972 5.80895C17.4873 5.29758 16.3176 5.0419 14.988 5.0419C13.6329 5.0419 12.444 5.29758 11.4213 5.80895C10.4113 6.30753 9.62509 7.01705 9.06259 7.9375C8.50009 8.85795 8.22523 9.93182 8.23802 11.1591C8.22523 12.4119 8.50648 13.505 9.08177 14.4382C9.65705 15.3714 10.4497 16.1001 11.4596 16.6243C12.4823 17.1484 13.6585 17.4105 14.988 17.4105Z" fill="#027F79"/>
</svg>
