<svg width="78" height="37" viewBox="0 0 78 37" fill="none" xmlns="http://www.w3.org/2000/svg">
<path d="M38.9997 18.5C36.8521 22.6276 33.9728 26.3394 30.499 29.4585C28.3098 31.6267 25.5204 33.1034 22.4834 33.7018C19.4465 34.3003 16.2986 33.9936 13.4377 32.8206C10.5768 31.6476 8.13156 29.6609 6.41115 27.1118C4.69073 24.5628 3.77246 21.5658 3.77246 18.5C3.77246 15.4342 4.69073 12.4372 6.41115 9.88818C8.13156 7.33912 10.5768 5.35245 13.4377 4.17943C16.2986 3.00641 19.4465 2.69973 22.4834 3.29818C25.5204 3.89663 28.3098 5.37332 30.499 7.5415C33.9728 10.6606 36.8521 14.3724 38.9997 18.5ZM38.9997 18.5C41.1473 14.3724 44.0267 10.6606 47.5004 7.5415C49.6897 5.37332 52.4791 3.89663 55.516 3.29818C58.5529 2.69973 61.7009 3.00641 64.5618 4.17943C67.4226 5.35245 69.8679 7.33912 71.5883 9.88818C73.3087 12.4372 74.227 15.4342 74.227 18.5C74.227 21.5658 73.3087 24.5628 71.5883 27.1118C69.8679 29.6609 67.4226 31.6476 64.5618 32.8206C61.7009 33.9936 58.5529 34.3003 55.516 33.7018C52.4791 33.1034 49.6897 31.6267 47.5004 29.4585C44.0267 26.3394 41.1473 22.6276 38.9997 18.5Z" stroke="#A87806" stroke-width="6" stroke-linecap="round" stroke-linejoin="round"/>
</svg>
